<svg width="215" height="48" viewBox="0 0 215 48" fill="none" xmlns="http://www.w3.org/2000/svg">
<g clip-path="url(#clip0_49_25)">
<path d="M31.7235 0V9.34713H22.4011V48H9.24459V9.34713H0V0H31.7235Z" fill="#FF541C"/>
<path d="M66.827 9.34713L48.7076 38.6529H66.3015V48H34.9478V38.6529L53.0672 9.34713H35.9274V0H66.827V9.34713Z" fill="#FF541C"/>
<path d="M153.772 2.54804C152.091 0.851498 149.25 0 145.234 0H123.06V48H145.234C149.25 48 152.091 47.1485 153.772 45.4584C155.452 43.7619 156.289 41.517 156.289 38.7303V9.27617C156.289 6.483 155.452 4.23814 153.772 2.54804ZM143.132 37.7562C143.132 38.3045 142.983 38.7174 142.685 38.9883C142.38 39.2657 141.906 39.4012 141.251 39.4012H136.217V8.59884H141.251C141.906 8.59884 142.38 8.74076 142.685 9.01169C142.983 9.28262 143.132 9.69547 143.132 10.2438V37.7562Z" fill="#FF541C"/>
<path d="M160.804 0H173.96V47.9935H160.804V0Z" fill="#FF541C"/>
<path d="M178.612 0V48H191.769V0H178.612Z" fill="#FF541C"/>
<path d="M215 48H200.87L191.846 23.4743L200.793 0H214.929L205.528 23.4743L215 48Z" fill="#FF541C"/>
<path d="M101.418 0L105.006 31.7119H83.8955L88.1318 0H101.418Z" fill="#FF541C"/>
<path d="M118.24 31.7119V48H116.988C110.364 48 104.999 40.7106 104.999 31.7248L118.24 31.7183V31.7119Z" fill="#FF541C"/>
<path d="M70.6545 31.7119V48H71.9066C78.5303 48 83.8954 40.7106 83.8954 31.7248L70.6545 31.7183V31.7119Z" fill="#FF541C"/>
</g>
<defs>
<clipPath id="clip0_49_25">
<rect width="215" height="48" fill="white"/>
</clipPath>
</defs>
</svg>
