<?xml version="1.0" encoding="UTF-8"?>
<svg id="Capa_1" xmlns="http://www.w3.org/2000/svg" version="1.1" viewBox="0 0 173.98 39.45">
  <!-- Generator: Adobe Illustrator 29.7.1, SVG Export Plug-In . SVG Version: 2.1.1 Build 8)  -->
  <defs>
    <style>
      .st0 {
        fill: #ff541c;
      }
    </style>
  </defs>
  <g>
    <path class="st0" d="M82.03,6.57v5.12h-17.36v-5.12s17.36,0,17.36,0ZM69.73,9.03h7.2v23.84h-7.2V9.03Z"/>
    <path class="st0" d="M92.98,11.69h7.53l-9.92,16.06h-7.53s9.92-16.06,9.92-16.06ZM100.22,27.75v5.12h-17.16v-5.12h17.16ZM100.5,6.57v5.12h-16.91v-5.12s16.91,0,16.91,0Z"/>
    <path class="st0" d="M124.09,32.87h-7.24l-3.95-18.47-4.07,18.47h-7.08l6.79-26.3h8.76s6.79,26.3,6.79,26.3ZM119.56,23.86v5.08h-13.21v-5.08h13.21Z"/>
    <path class="st0" d="M125.62,6.57h7.2v26.3h-7.2s0-26.3,0-26.3ZM136.6,17.55v-5.37c0-.3-.08-.53-.25-.68-.16-.15-.43-.23-.78-.23h-7.57v-4.71h9.75c2.19,0,3.75.46,4.67,1.39s1.38,2.16,1.38,3.69v5.9h-7.2ZM136.6,27.26v-10.24h7.2v10.77c0,1.53-.46,2.76-1.38,3.69-.92.93-2.48,1.39-4.67,1.39h-9.75v-4.71h7.57c.36,0,.62-.07.78-.23.16-.15.25-.38.25-.68h0Z"/>
    <path class="st0" d="M145.33,6.57h7.2v26.3h-7.2V6.57Z"/>
    <path class="st0" d="M154.06,6.57h7.2v26.3h-7.2V6.57ZM168.79,19.44h-7.49l4.9-12.86h7.73l-5.14,12.86h0ZM161.31,19.44h7.49l5.18,13.44h-7.73s-4.94-13.44-4.94-13.44Z"/>
  </g>
  <g>
    <polygon class="st0" points="48.03 10.1 39.06 10.1 33.77 16.92 33.77 39.45 24.74 39.45 24.74 17.14 19.3 10.1 9.77 10.1 13.13 0 44.56 0 48.03 10.1"/>
    <polygon class="st0" points="20.62 18.56 20.62 32.79 14.14 24.39 4.84 24.39 8.08 14.33 17.39 14.33 17.39 14.37 20.62 18.56"/>
    <polygon class="st0" points="53.11 24.39 43.79 24.39 37.87 32.06 37.87 17.82 40.54 14.37 40.54 14.33 49.77 14.33 53.11 24.39"/>
    <polygon class="st0" points="20.61 39.45 0 39.45 3.47 28.65 12.69 28.65 20.61 39.45"/>
    <polygon class="st0" points="37.48 39.45 58.1 39.45 54.62 28.65 45.4 28.65 37.48 39.45"/>
  </g>
</svg>