<svg width="24" height="18" viewBox="0 0 24 18" fill="none" xmlns="http://www.w3.org/2000/svg">
<g clip-path="url(#clip0_84_177)">
<path d="M14.7371 3.09561H18.9264C19.0406 3.09561 19.5105 3.30654 19.6394 3.37861C20.5997 3.91647 21.6555 6.51967 22.4225 7.50927C23.0834 8.36236 23.8404 8.68637 23.9382 9.91912C24.0173 10.9204 24.0238 12.7356 23.9382 13.7316C23.8111 15.2064 22.5801 15.3206 21.3579 15.2234C21.1323 18.7523 16.1509 18.7904 15.8574 15.2579L8.50596 15.2322L8.41807 15.32C8.29913 17.8078 5.08659 18.8496 3.5228 16.8598C3.13844 16.3706 3.00368 15.8567 2.90642 15.2497C1.51957 15.207 0.212406 15.4642 0.0876071 13.6742C0.304394 9.95603 -0.191286 5.92615 0.0876071 2.24429C0.136238 1.59686 0.360641 1.09883 1.01393 0.885563C5.15104 0.710376 9.32799 0.862713 13.4797 0.808223C13.9614 0.762522 14.7371 1.44042 14.7371 1.8945V3.09561ZM14.034 11.1812V2.07027C14.034 1.88395 13.6491 1.51131 13.4217 1.56932L1.40649 1.57049C1.25005 1.52948 0.851048 1.85173 0.851048 1.9525V11.1806H14.034V11.1812ZM23.1742 10.7124C23.1484 10.3861 23.2129 10.0117 23.1689 9.69237C23.0805 9.04201 22.1705 8.40279 21.778 7.86082C21.1364 6.97668 20.0871 4.5557 19.3265 4.04303C19.2422 3.9862 18.8754 3.79871 18.8092 3.79871H14.7371V14.4623H15.8796C16.0882 13.8758 16.339 13.3531 16.8159 12.9377C18.4207 11.5392 20.8517 12.4631 21.335 14.4664C21.7727 14.4043 22.4793 14.5876 22.852 14.3457C23.3588 14.017 23.1244 13.3877 23.1742 12.8809H22.0903C21.9309 12.8809 21.6051 12.5252 21.5612 12.3553C21.5073 12.1491 21.502 11.3827 21.5606 11.1794C21.5999 11.0435 21.9104 10.713 22.0317 10.713H23.1742V10.7124ZM23.1742 11.4155H22.2368V12.1772H23.1742V11.4155ZM14.034 11.9429H0.851048V14.0228C0.851048 14.0627 1.00631 14.2461 1.05553 14.2871C1.46918 14.6339 2.48339 14.3908 3.01657 14.4593C3.55619 11.562 7.83275 11.5661 8.35069 14.4617H14.034V11.9423V11.9429ZM5.23014 13.0701C2.88298 13.4352 3.27085 17.3783 5.85355 17.1498C8.54463 16.912 8.28683 12.595 5.23014 13.0701ZM18.1799 13.0713C15.8708 13.4059 16.155 17.3877 18.8022 17.1498C21.437 16.9125 21.2009 12.6342 18.1799 13.0713Z" fill="#FF541C"/>
<path d="M16.1864 4.69124C16.5367 4.62034 18.0747 4.62972 18.4591 4.676C18.8217 4.71995 19.2049 5.01408 19.4147 5.30235C19.6578 5.63632 20.8642 7.71397 20.9603 8.03388C21.1255 8.58464 20.9046 8.96197 20.3345 9.01587C19.4434 9.09966 17.3406 9.11372 16.4653 9.01353C16.1219 8.97427 15.819 8.74987 15.72 8.41121C15.6116 8.04032 15.621 5.81678 15.6743 5.35156C15.7077 5.05919 15.8776 4.75393 16.1858 4.69124H16.1864ZM20.3035 8.31043L18.8059 5.67733C18.7637 5.5953 18.4497 5.38086 18.3993 5.38086H16.378V8.16395C16.378 8.1745 16.5139 8.31043 16.5244 8.31043H20.3035Z" fill="#FF541C"/>
<path d="M15.7489 10.3178C15.9112 10.1443 17.1376 10.1426 17.3907 10.1982C17.7979 10.2879 17.7533 10.8808 17.4018 10.9459C17.2108 10.9816 16.1304 10.9816 15.94 10.9459C15.6687 10.8949 15.5802 10.4976 15.7489 10.3178Z" fill="#FF541C"/>
<path d="M5.52424 14.0657C6.84488 13.8572 7.15482 15.8604 5.90684 16.0889C4.51589 16.3438 4.2118 14.2731 5.52424 14.0657ZM5.64025 14.7653C5.23245 14.8274 5.33089 15.4438 5.7422 15.4016C6.14061 15.3606 6.0457 14.7038 5.64025 14.7653Z" fill="#FF541C"/>
<path d="M18.4722 14.0661C19.7923 13.8545 20.0407 15.9433 18.7452 16.0986C17.4398 16.255 17.1527 14.2776 18.4722 14.0661ZM18.8249 15.3275C19.1021 15.0492 18.6509 14.5049 18.3662 14.898C18.14 15.2097 18.5894 15.5636 18.8249 15.3275Z" fill="#FF541C"/>
</g>
<defs>
<clipPath id="clip0_84_177">
<rect width="24" height="17.1058" fill="white" transform="translate(0 0.79834)"/>
</clipPath>
</defs>
</svg>
