<svg width="24" height="27" viewBox="0 0 24 27" fill="none" xmlns="http://www.w3.org/2000/svg">
<g clip-path="url(#clip0_84_188)">
<path d="M3.26138 11.6755L11.9791 15.1161L20.6297 11.7374L16.8654 10.0433C16.6579 9.87152 16.608 9.67931 16.7977 9.46986C17.0614 9.17931 17.3143 9.37854 17.608 9.49157C19.0276 10.0382 20.4375 10.8038 21.8551 11.3754L21.972 11.468C22.5014 12.4577 23.2498 13.3862 23.7862 14.3613C23.9592 14.6755 24.1668 14.9124 23.783 15.1781L21.5984 16.1225L21.5173 22.1078L21.1853 22.3505L11.9772 26.3007L2.65346 22.2771C2.48041 22.1896 2.36674 22.0644 2.36674 21.8614L2.35908 16.1219L0.171992 15.18C-0.00936079 15.0561 -0.0323492 14.8039 0.0340617 14.6097C0.794594 13.5363 1.35717 12.2917 2.2186 11.3026L6.75816 9.3249C7.03083 9.24061 7.22815 9.48391 7.28051 9.7272C7.25752 9.92835 7.13109 10.0222 6.96889 10.1142C6.01296 10.6557 4.54873 11.1685 3.49828 11.6244C3.42357 11.657 3.34375 11.6755 3.26265 11.6761L3.26138 11.6755ZM0.961899 14.6755L9.35968 18.0433L11.2415 15.7917L2.51489 12.2572L0.962537 14.6755H0.961899ZM22.9924 14.6755L21.4414 12.2591L12.6483 15.7291L14.594 18.0389L22.9924 14.6755ZM3.13302 16.4003V21.6366L11.626 25.2758C11.6572 25.2522 11.5621 25.1947 11.5621 25.1807V16.7515C11.5621 16.7406 11.6988 16.6398 11.594 16.5919C11.5512 16.6346 11.5059 16.6736 11.465 16.7183C10.9446 17.293 10.4446 18.1519 9.90374 18.6691C9.77795 18.7898 9.67641 18.8914 9.4874 18.8926L3.13239 16.3996L3.13302 16.4003ZM20.8213 16.4003L14.5308 18.8946L14.2083 18.8301L12.4548 16.6564L12.3271 16.6889C12.3335 16.7477 12.3922 16.7981 12.3922 16.8154V25.1807C12.3922 25.2094 12.2249 25.2899 12.4248 25.2771L20.8213 21.6366V16.4003Z" fill="#FF541C"/>
<path d="M11.2284 0.837227C16.8912 0.199293 19.296 7.58183 14.6466 10.3858C10.6415 12.8015 5.85485 9.15016 6.99533 4.65014C7.48255 2.72804 9.22967 1.06264 11.2284 0.837227ZM11.5483 1.60479C5.89763 2.13928 6.60516 10.8577 12.4225 10.3334C18.0208 9.82897 17.2481 1.0652 11.5483 1.60479Z" fill="#FF541C"/>
<path d="M11.7976 11.9428C12.5313 11.7155 12.4527 13.248 12.3767 13.672C12.2752 14.2365 11.6526 14.28 11.5677 13.681C11.5242 13.3764 11.4751 12.0424 11.7976 11.9428Z" fill="#FF541C"/>
<path d="M12.3311 3.37176C12.9843 3.15656 14.1421 4.90688 13.3151 5.03524C12.7423 5.12464 12.84 4.50139 12.4888 4.20318C11.8694 3.67763 10.8669 4.16295 11.144 5.03779C11.342 5.66359 13.2123 5.52055 13.6363 6.63167C13.9997 7.58314 13.2934 8.55505 12.3311 8.67638C12.4812 9.63232 11.4294 9.6336 11.5597 8.67638C10.9365 8.80792 9.75703 7.4567 10.4607 7.08952C10.895 6.86347 10.9876 7.36666 11.151 7.58442C11.8017 8.4516 13.1868 7.84815 12.8075 6.95032C12.5667 6.38071 11.6976 6.36474 11.1983 6.13167C9.88602 5.51927 9.88283 4.02757 11.1983 3.42476C11.2934 3.38133 11.4875 3.38006 11.5342 3.31365C11.6434 3.15911 11.4262 2.85515 11.7296 2.6789C12.2136 2.39729 12.4096 2.96626 12.3311 3.37112V3.37176Z" fill="#FF541C"/>
</g>
<defs>
<clipPath id="clip0_84_188">
<rect width="24" height="25.5021" fill="white" transform="translate(0 0.79834)"/>
</clipPath>
</defs>
</svg>
