<svg width="24" height="25" viewBox="0 0 24 25" fill="none" xmlns="http://www.w3.org/2000/svg">
<g clip-path="url(#clip0_84_156)">
<path d="M4.7058 0.83849C8.029 0.440185 10.8672 3.05631 10.5711 6.42181C10.5422 6.74821 10.2821 7.37704 10.4266 7.62448L18.6401 15.9085C19.8682 16.096 20.8495 16.1863 21.8449 17.004C24.2213 18.9575 23.7356 22.7883 20.9334 24.0438C17.8907 25.4072 14.7847 22.8764 15.0829 19.6773L6.80237 11.2445L6.67547 11.1958C2.83624 12.3484 -0.851425 8.88919 0.173592 4.97734C0.293436 4.52052 0.450643 3.80992 1.08159 4.14125C1.84083 4.77995 2.49151 5.64846 3.23948 6.28293C3.64201 6.62414 3.8112 6.82153 4.38716 6.72283C5.34098 6.55998 6.01563 5.4976 5.74704 4.55083L3.24089 1.98194C2.63392 1.21847 4.18554 0.900527 4.7058 0.83849ZM14.2144 17.4101C14.459 17.6653 15.8167 19.016 15.8774 19.1662C16.0092 19.4911 15.9006 20.077 15.9316 20.4513C16.1488 23.0646 19.1491 24.4541 21.2513 22.8122C23.4825 21.0703 22.5646 17.5356 19.8223 16.9836C19.2259 16.8637 18.5908 16.978 18.0811 16.61L9.65676 8.11514C9.19078 7.53988 9.68426 6.81025 9.72514 6.14053C9.89716 3.36649 7.19292 1.12682 4.50841 1.76975C4.38646 1.86139 4.48586 1.87126 4.54507 1.9474C5.12455 2.68973 6.56409 3.58856 6.68957 4.52687C6.83479 5.61463 6.34978 6.68547 5.42064 7.26424C3.33465 8.56349 2.36321 6.45776 0.985711 5.33193C0.289911 8.15038 2.72979 10.8257 5.59406 10.5402C6.14252 10.4852 6.72271 10.0806 7.22464 10.407C9.52635 12.7679 11.9324 15.0322 14.2144 17.4108V17.4101Z" fill="#FF541C"/>
<path d="M23.8044 11.6531C23.4829 12 22.2781 12.0035 22.0702 12.2805C22.0321 12.3313 21.6521 13.264 21.6564 13.3196C21.6923 13.7595 22.6116 14.3863 22.4727 15.0073C22.3677 15.4768 21.2432 16.4828 21.0184 15.7123C20.8999 15.3048 21.4724 15.1511 21.54 14.7719L20.7244 13.3359C21.0233 12.841 21.1044 12.1691 21.3229 11.6743C21.5563 11.1455 22.6821 11.3077 23.1234 10.9933L23.1135 9.35422C23.0663 9.29923 21.8989 9.11806 21.6937 9.04686C21.1904 8.87202 21.2933 8.528 21.1297 8.1304C20.9662 7.7328 20.6222 7.23369 20.7787 6.82833C20.8605 6.61614 21.5978 5.74339 21.5372 5.60945L20.3367 4.42863C19.9243 4.58725 19.2834 5.29926 18.8555 5.29715C18.6017 5.29574 17.4999 4.58443 17.11 4.55412C16.7801 4.30526 16.766 2.89886 16.5884 2.85727L14.8795 2.86784C14.7935 2.94116 14.6899 4.25451 14.4523 4.51957C14.1978 4.80367 13.1369 4.91788 12.79 5.25415C12.6328 5.27741 12.489 5.27107 12.3381 5.2189C12.2493 5.18858 11.029 4.39197 10.9296 4.30174C10.6371 4.03597 10.6307 3.70886 11.0163 3.54743C11.4668 3.3585 12.2966 4.33628 12.6526 4.33699C12.7068 4.33699 13.5909 3.97534 13.6571 3.93586C14.0315 3.71168 13.8573 2.29894 14.3981 2.06841C14.618 1.97465 16.5489 1.97465 16.8845 2.01342C17.6444 2.10155 17.5175 3.29223 17.7276 3.84915L18.8034 4.33135C19.3751 4.20163 20.0483 3.24429 20.6807 3.57492C20.8196 3.64753 22.178 5.00459 22.3127 5.18577C22.8513 5.91188 21.8925 6.46175 21.6444 7.12512L22.0321 8.14521C22.5305 8.49769 23.748 8.35176 23.9341 9.06307C24.0201 9.39229 24.0116 10.8375 23.9693 11.2167C23.9552 11.3443 23.8897 11.5601 23.8044 11.6517V11.6531Z" fill="#FF541C"/>
<path d="M15.4935 6.26802C18.9076 6.05583 21.1438 10.1728 18.7518 12.7692C18.4628 13.0829 17.4624 13.9585 17.0874 13.5136C16.6475 12.992 17.5181 12.6853 17.8347 12.416C21.0296 9.69133 16.3317 5.08791 13.5668 8.07767C13.2439 8.42662 13.1192 9.09493 12.5242 8.91164C12.1322 8.79038 12.3197 8.38221 12.4396 8.14887C13 7.05829 14.2809 6.34345 15.4928 6.26802H15.4935Z" fill="#FF541C"/>
<path d="M18.9431 18.6011C21.1757 18.2613 21.5669 21.6043 19.4845 21.8905C17.2772 22.1936 16.941 18.9057 18.9431 18.6011ZM19.2208 19.452C18.2007 19.4696 18.2508 21.022 19.2067 21.0389C20.236 21.0572 20.2374 19.4344 19.2208 19.452Z" fill="#FF541C"/>
</g>
<defs>
<clipPath id="clip0_84_156">
<rect width="24" height="23.623" fill="white" transform="translate(0 0.79834)"/>
</clipPath>
</defs>
</svg>
