<svg width="24" height="35" viewBox="0 0 24 35" fill="none" xmlns="http://www.w3.org/2000/svg">
<g clip-path="url(#clip0_84_166)">
<path d="M22.9729 7.78441H18.5624C18.1258 7.78441 17.1214 6.7748 17.1214 6.34335V1.93284H2.0559C1.63231 1.93284 1.01485 2.65512 1.05153 3.11189V26.4317C1.29345 28.2605 2.76507 27.4675 3.87162 27.7164C4.49432 27.8561 4.5607 28.7217 3.97467 28.8308C3.63144 28.8946 2.34585 28.8762 1.96769 28.8334C0.943232 28.7173 0.0515284 27.7138 0 26.6963L0.00262009 2.76254C0.174672 1.7311 1.01135 0.904017 2.05677 0.79834L18.1048 0.818427C18.3424 0.863842 18.5057 0.959913 18.6961 1.10053C20.4402 2.39136 22.0192 4.85426 23.759 6.25601L23.9799 6.64641L24 27.0212C23.8044 27.8107 23.0961 28.6378 22.2777 28.7924C21.8742 28.8684 20.3528 28.8998 19.9782 28.8134C19.6035 28.7269 19.4541 28.3182 19.648 27.9968C20.0935 27.2588 21.9607 28.2186 22.7109 27.2177C22.7721 27.1365 22.9721 26.7522 22.9721 26.6928V7.78441H22.9729ZM22.6236 6.73637L18.1694 2.19485V5.994C18.1694 6.27523 18.7467 6.73637 18.9991 6.73637H22.6236Z" fill="#FF541C"/>
<path d="M7.95107 28.8323C7.46111 29.0017 7.11351 29.1903 6.60871 28.9082C6.46984 28.8305 4.92661 27.2943 4.85762 27.1667C4.38688 26.2881 5.5205 25.7493 5.46635 25.4218L4.98076 24.3344C4.42006 24.0698 3.74845 24.1868 3.4288 23.5283C3.27508 23.2113 3.26286 21.3361 3.34146 20.9484C3.5074 20.1309 4.39212 20.1353 5.02618 19.9257L5.48731 18.7588C5.12137 18.137 4.45762 17.5807 4.98164 16.8243C5.14583 16.5868 6.52487 15.1824 6.73709 15.0872C7.50565 14.744 7.86199 15.4645 8.56854 15.6042L9.84888 15.0121C10.0987 13.9256 10.0358 13.3771 11.3091 13.2846C12.8454 13.1728 14.0611 13.116 14.0812 15.0182C14.4279 15.0785 14.9799 15.4968 15.2655 15.5448C15.8681 15.6462 16.4742 14.6034 17.3799 15.1693C17.5956 15.3038 18.731 16.4558 18.9135 16.6924C19.6105 17.5981 18.9188 17.9422 18.5249 18.744L19.1048 19.9947C19.6183 20.0584 20.4629 20.2733 20.5956 20.8619C20.6637 21.1641 20.6585 23.2375 20.5746 23.5117C20.3947 24.1012 19.5004 24.1091 19.0419 24.337L18.531 25.4881C18.5039 25.7956 19.6009 26.3283 19.0786 27.2558C18.945 27.4934 17.5161 28.8489 17.2707 28.9414C16.876 29.0908 16.4367 29.0209 16.0725 28.8349V34.1188C16.0725 34.3677 15.448 34.6541 15.1965 34.4716L11.9974 32.6978L8.82792 34.4725C8.57814 34.6332 7.95019 34.4009 7.95019 34.1188V28.8349L7.95107 28.8323ZM12.9205 29.6096C13.0367 29.262 13.0716 28.4768 13.3703 28.2689C13.6131 28.0995 14.2952 27.9161 14.6218 27.7737C14.8664 27.6672 15.165 27.3659 15.4253 27.3484C15.7685 27.3266 16.4821 28.0288 16.7974 27.9475L18.0428 26.8218C18.1982 26.5117 17.1746 25.8532 17.4 25.4052C17.7581 25.0034 17.9406 23.8095 18.2052 23.4977C18.4698 23.1859 19.255 23.2331 19.6166 22.9868L19.6323 21.275C19.5939 21.068 18.2183 21.0802 18.0934 20.6558C18.0498 20.1257 17.3956 19.1728 17.3764 18.7449C17.3511 18.1877 17.9799 17.8855 18.0672 17.3614L16.8559 16.1221C16.5712 15.9807 15.6812 16.8916 15.2838 16.7492C14.7511 16.3117 13.4017 16.1606 13.1467 15.5597C13.041 15.3099 12.979 14.4776 12.8454 14.3737L11.0952 14.3361C10.9353 14.7667 10.9781 15.6007 10.6026 15.8977C10.2271 16.1946 9.06373 16.44 8.59823 16.7815L7.11875 16.1082C6.92923 16.3981 6.08382 17.0855 5.98163 17.3099C5.78862 17.7335 6.83229 18.3553 6.60522 18.8829C6.23404 19.296 6.10129 20.4811 5.80522 20.7964C5.50915 21.1117 4.51613 21.0776 4.40609 21.2313L4.36329 23.0209C4.38076 23.1222 5.7467 23.2113 5.8419 23.5632C5.86024 24.0287 6.63578 25.2532 6.62967 25.5624C6.62094 26.0034 6.02094 26.3082 5.87421 26.6969C5.8812 26.7825 7.00085 27.8864 7.07945 27.9213C7.50565 28.1126 8.186 27.2672 8.65063 27.3833C9.70216 28.096 11.1572 27.9554 11.007 29.62L12.9188 29.6122L12.9205 29.6096ZM15.0253 33.1118V28.7449L14.11 29.1834C13.9738 29.7921 13.9764 30.3938 13.3039 30.648C12.8227 30.8297 10.9607 30.834 10.51 30.5965C9.78164 30.2122 10.0856 29.3458 9.85238 29.1144L8.9991 28.8323V33.1118L11.931 31.4524L15.0253 33.1118Z" fill="#FF541C"/>
<path d="M4.34497 6.40534L14.7205 6.38525C15.4777 6.43853 15.5188 7.48657 14.7205 7.52413L4.40873 7.52675C3.77292 7.47871 3.76594 6.53809 4.34497 6.40534Z" fill="#FF541C"/>
<path d="M4.25714 9.72412L12.5401 9.70142C13.0405 9.75731 13.1576 10.3442 12.8039 10.6726L4.4091 10.7582C3.83268 10.6892 3.7401 9.97391 4.25714 9.72412Z" fill="#FF541C"/>
<path d="M11.4252 17.7654C17.4296 17.0397 18.0235 26.2301 12.1842 26.4746C6.64616 26.7061 6.04704 18.4152 11.4252 17.7654ZM11.3344 18.8973C10.1265 19.086 8.96582 20.2982 8.7763 21.4921C8.2252 24.9655 12.5038 26.7498 14.5868 24.0711C16.4514 21.6729 14.3029 18.4353 11.3344 18.8973Z" fill="#FF541C"/>
</g>
<defs>
<clipPath id="clip0_84_166">
<rect width="24" height="33.7313" fill="white" transform="translate(0 0.79834)"/>
</clipPath>
</defs>
</svg>
