<?xml version="1.0" encoding="UTF-8"?>
<svg id="Layer_1" data-name="Layer 1" xmlns="http://www.w3.org/2000/svg" viewBox="0 0 210.06 179.62">
  <defs>
    <style>
      .cls-1 {
        fill: #ff541c;
      }
    </style>
  </defs>
  <path class="cls-1" d="M112.64,124.19l4.22,54.27c.07.36-.42,1.06-.63,1.06h-22.36c-.57,0-.67-1.35-.65-1.88.21-5.73,1.28-11.61,1.7-17.34.88-12.04,1.34-24.1,2.54-36.11h15.19Z"/>
  <g>
    <path class="cls-1" d="M79.74,12.07c-1.23,1.4-3.73,5.92-5.1,6.32-13.63-1.74-27.64,5.8-32.79,18.69-2.26,5.64-1.88,11.46-2.43,17.42-.52,1.23-6.76,4.49-8.34,7.01-1.19.87-2.17,2-2.84,3.32-2.87,3.52-5.26,12.3-5.47,16.08-.59,10.53,5.73,25.69,15.89,30.13,1.76.77,2.52.99,2.65,1.15.16.19.96.16,1.55.66,1.04.87,4.66,1.03,6.22,2.11,1.53,1.06,4.3,6.77,7.06,8.97l2.56,2.32c10.8,6.5,23.41,6.5,33.36-1.63,1.55-1.26,2.93-3.44,4.33-4.66.21-.19.52-.28.82-.38h7.78l.05-119.48c-8.45.01-16.13,3.28-21.87,8.6-1.26,1.07-2.41,2.21-3.42,3.37Z"/>
    <path class="cls-1" d="M187.29,80.91c-.22-3.78-2.6-12.56-5.47-16.08-.68-1.31-1.65-2.45-2.84-3.32-1.58-2.52-7.82-5.78-8.34-7.01-.55-5.96-.17-11.78-2.43-17.42-5.15-12.89-19.16-20.42-32.79-18.69-1.37-.39-3.87-4.92-5.1-6.32-1.01-1.16-2.16-2.29-3.42-3.37C121.16,3.38,113.48.11,105.03.1l.05,119.48h7.78c.3.09.61.19.82.38,1.39,1.22,2.78,3.39,4.33,4.66,9.95,8.13,22.56,8.12,33.36,1.63l2.56-2.32c2.76-2.21,5.53-7.92,7.06-8.97,1.56-1.08,5.19-1.25,6.22-2.11.6-.5,1.39-.47,1.55-.66.14-.15.9-.38,2.65-1.15,10.15-4.43,16.48-19.6,15.89-30.13Z"/>
  </g>
</svg>