<?xml version="1.0" encoding="UTF-8"?>
<svg id="Layer_1" data-name="Layer 1" xmlns="http://www.w3.org/2000/svg" viewBox="0 0 210.06 179.62">
  <defs>
    <style>
      .cls-1 {
        fill: #ff541c;
      }
    </style>
  </defs>
  <path class="cls-1" d="M106.07,76.07c.02.19.45,1.88.97,1.7-.06-2.69,1.88-5.28,2.32-7.65.49-2.64-.62-7.13,3.03-7.91.13.96-.78,1.25-.96,2.2-.3,1.57.17,3.58-.05,5.29-.36,2.84-2.69,5.36-1.9,8.55l3.4-3.4-.96,4.86,1.7-1.94.32.9,1.38-.42-.73,2.91,13.85-9.23-12.63,11.67,10.68-3.88c-2.24,3.01-6.25,3.47-9.23,5.59l2.92.24-2.43,1.45c2-.51,3.96-.94,6.04-.97.64,0,2.66-.42,2.7.48-2.06-.18-3.87.15-5.83.74-.38.11-3.49.84-2.43,1.7,4.78.7,10.73-.1,15.31.49.71.09,1.51.37.72.97l-16.51.49c.21,1.24,1.9.68,2.33,1.07.24.22.08,1.13.58,1.59,1.57,1.44,9.4-.37,12.34,1.77.81.59.91.89.78,1.89-2-2.13-4.2-1.09-6.5-1.51-3.33-.61-6.57-1.83-10.01-1.89l4.37,2.43-1.7.48.25.97-3.89-.96c.29.91,3.28,2.8,2.43,3.88-.72.91-1-.85-1.32-.95-.7-.24-1.97-.1-2.8-.51l1.21,2.43c-2.12.87-2.15-.58-3.88-.96l.96,2.19-.96.23.48,2.43c-.71.17-1.92-4.54-2.91-3.4.21,1.51.8,3.21.94,4.69.09.99-.43,1.81-.35,2.73.21,2.51,3.36,5.18,1.35,8.62-1.97-.93.31-2.52-.18-4.41-.15-.56-2.64-2.91-2.71-3.24-.26-1.22,0-2.97-.24-4.54-.06-.43-.79-3.98-1.72-2.89-1.35,4.75-.39,10.26-.97,14.84-.11.89.16.79-.97.72v-14.34c0-.42-.7-1.85-1.22-.73s-2.37,6.05-2.56,7.17c-.32,1.92.47,5.99-1.82,6.93-1.63.67.17-1.82.24-2.2.25-1.47-.14-3.21.06-4.8.38-2.96,2.58-5.59,1.65-8.56l-1.7,1.94v-2.91s-1.94,3.89-1.94,3.89l1.45-4.37-3.15,2.92c-4.76.74-3.61,8.61-8.99,8.26-.2-1.49,1.18-.74,2.17-1.95s1.61-4.13,2.65-5.13c.92-.88,1.96-.49,2.36-.8.22-.18,2.34-4.87,2.04-5.24l-13.11,9.24c-.51-.53,1.73-2.51,2.17-2.93,1.48-1.41,3.65-3.22,5.44-4.04l4.05-4.7c-2.29.47-4.12,2.33-6.55,2.44-1.23.06-.47-.37-.24-.98l-1.46-.48c2.53-.09,5.45-1.15,6.8-3.4-2.59.61-5.91.52-8.39,1.08-1.86.42-5.93,3.13-7.64,1.34-.3-.32-.37-1.02.62-.84,2.1.39,2.91-.16,4.49-1.58l.23.96,4.86-.49-3.88-.96,5.35-.49-.24.97,2.66-.5-1.94-.96c.85-.32,3.27.1,2.91-1.46l-14.82-.49-.72-.97,15.54-.49c.28-1.36-.5-.95-1.46-.97l.49-1.45-2.43-.97,4.37.24-5.82-4.13.86-.08c.06-.05-.92-1.35.34-.89s2.74,1.85,4.5,2.31c.47.13,1.71.49,1.58-.37l-10.96-9.21-.69-1.98,11.39,9.24,2.2.48-2.42-4.37c.41-.53,4.33,2.78,4.85,2.19l-.96-2.68c2.28-.02,1.8.71,3.39,1.94-1.08-2.93-.61-6.06-1.08-8.88-.42-2.51-3.57-5.61-.38-7.65-.96,3.04,1.86,5.32,2.32,7.65.51,2.57-.52,5.71,1.81,7.91l1.22-16.04c.49-.14.97,2.07.97,2.19,0,3.87-.42,8.97,0,12.64ZM103.04,79.36c-9.58,1.37-12.56,14.2-4.71,19.53,10.34,7.03,23.26-4.62,16.21-14.77-2.67-3.84-6.91-5.42-11.5-4.76Z"/>
  <path class="cls-1" d="M124.04,68.53c-3.4-.07-2.21,4.29-4.62,5.84l-.24-.97-1.94.97c1.87-1.52,2.43-4.44,4.12-5.83.94-.78,2.12-1.57,2.68,0Z"/>
  <path class="cls-1" d="M127.93,107.92l-7.25-4.66-1.01-1.66c.67-.62,6.25,3.65,7.03,4.39.58.56,1.4.96,1.23,1.93Z"/>
  <path class="cls-1" d="M123.06,112.78c-1.78.21.03-1.04-1.22-2.41-.71-.77-1.99-.92-2.71-1.71l.06-1.71c2.08,1.09,5.1,3.21,3.87,5.83Z"/>
  <path class="cls-1" d="M88.09,67.08c-.39,3.09,3.59,3,3.4,5.83-.55.6-3.69-2.88-4-3.53-.41-.85-1-2.69.6-2.31Z"/>
  <path class="cls-1" d="M85.18,85.07c.12.83-1.12.47-1.7.49-2.55.05-5.64-.15-6.56-2.92,2.59,1.28,5.34,2.13,8.26,2.43Z"/>
  <path class="cls-1" d="M115.29,71.94c-.86.01-.87-1.4-.75-1.95.28-1.31,2.43-5.04,3.67-5.83l-2.92,7.78Z"/>
  <path class="cls-1" d="M133.76,84.09c-2.27-.7-3.8.02-5.59,1.46l-.68-1.22c1.63-1.58,4.78-2.47,6.28-.24Z"/>
  <path class="cls-1" d="M95.87,108.9c.62,1.22-2.68,8.02-3.88,6.8,1.42-1.72,1.98-3.72,2.79-5.73.3-.73-.29-1.32,1.09-1.07Z"/>
  <path class="cls-1" d="M131.82,102.57l-6.31-2.42c2.65-.75,4.86.05,6.31,2.42Z"/>
  <path class="cls-1" d="M111.41,86.52c-1.67-.48-3.66-.9-4.89.7-.51.66-.11,1.79-.93,1.73.46-1.8-3.26-2.92-4.86-2.91l1.94.97-.49,1.94.97-1.46.97.74c.58,2.56-7.42,2.19-3.89-1.71l-1.69.49-.25-.97c1.22-.12,2.36-1.04,3.61-.96,1.31.08,3.19,1.85,3.44,1.84.44,0,4.27-3.99,6.07-.4Z"/>
  <path class="cls-1" d="M107.85,87.09c1.41-.45,3.21-.16,4.04,1.14-2.16,4.07-6.85-.24-4.04-1.14Z"/>
  <path class="cls-1" d="M107.53,91.88c.26,2.48-5.31,1.56-5.33.24,1.42-1.58,3.61-.35,5.33-.24Z"/>
  <rect class="cls-1" x=".17" y="5.08" width="209.89" height="52.32"/>
  <rect class="cls-1" y="122.73" width="210.03" height="51.81"/>
</svg>