<?xml version="1.0" encoding="UTF-8"?>
<svg id="Layer_1" data-name="Layer 1" xmlns="http://www.w3.org/2000/svg" viewBox="0 0 210.06 179.62">
  <defs>
    <style>
      .cls-1 {
        fill: #ff541c;
      }
    </style>
  </defs>
  <path class="cls-1" d="M210.06,104.03c-.23,4.72-1.26,8.34-3.88,12.23-.52.78-2.51,2.73-2.65,3.36-.39,1.79,2.15,8.74-1.62,9.27l-86.17.06-.61-.67c-2.05,1.29-5.46.59-7.99.63-27.51.44-54.85.18-82.32.01-3.89-.02-7.89-.09-11.82-.01-1.12.02-2.24.68-3.36.19l-.25-.39c-.47-5.07-1.39-10.16-2.83-15.04-2.3-7.75-7.2-14.66-6.47-23.05,4.53.35,9.05,1.15,13.56,1.59,17.37,1.72,35.04,2.62,52.2,5.24,3.35,5.75,7.02,4.58,12.59,4.96,16.47,1.12,32.96,2.07,49.45,2.88l-.16.64c.83.34.56-.65.82-.65.3,0,.79.32,1.26.34,13.4.4,26.83,1.21,40.22,1.9,6.27.32,13.26,1.36,19.45,1.32,2.93-.02,3.42-2.94,5.11-4.82h15.48ZM18.18,97.41l-1.61-.11c-.48,2.03-2.66,1.47-3.26,3.21-1.15,3.3,1.49,5.91,4.64,4.64,1.99-.8.87-1.42.95-2.55.06-.82,2.65-3.55-.64-2.72.05-.89.57-1.68-.08-2.48ZM195.9,106.62c-1.35.45-.25,3.23,1.41,2.06.82-.58.39-2.66-1.41-2.06ZM202.08,106.58h-1.92v2.24h1.92v-2.24ZM206.87,106.58c-1.69-.18-2.72.03-2.1,1.94l2.1.3v-2.24Z"/>
  <path class="cls-1" d="M176.23,88.39l-1.88-.04-5.78-16.87-.63.47-.64,15.8-1.58-.33.62-16.58c-.93-.18-.51.27-.72.7-.93,1.9-4.08,8.4-4.32,10.07-.34,2.34,1.53,3.12,1.21,5.5l-40.37-3.83-25.02-2.9c-.16-1.37.36-2.68-.67-3.79l3.83.32,1.28-14.04,9.55,1.31-1.25,14.33,6.37.64c.59-1.44-1.02-2.47.06-4.1,1.46-.04,4.01-.56,4.1,1.43.05,1.16-.93,1.8-.63,3l2.55.32.64-7.98,1.59.32c.31-1.14-1.07-.43-1.28-.64l.48-5.42,9.07,1.3-.91,13.99c1.37-.21,5.09,1.46,5.12-.79-2.95-3.18,3.57-4.42,3.8-1.54.09,1.12-1,1.81-.61,2.97l2.5.32,1.3-13.06,8.94.96-1.24,12.58c.13.37.41.44.76.5,1.7.29,4.22.14,6.01.33l.48-2.01-5.53-13.32-9.09-1.6.66-6.05c1.61-.58,7.38-.22,8.31,1.08.69.73.02,1.73.15,2.46.28,1.6,3.66,8.99,4.56,11.03.63,1.43,1.23,2.96,2.13,4.25.31,0,2.46-4.83,2.77-5.52.97-2.17,3.05-6.48,3.56-8.57.38-1.57-.45-5.56,1.33-5.39,1.45.14.49,2.13.47,3.04-.02,1.12-.07,2.27.16,3.38l7.83,22Z"/>
  <path class="cls-1" d="M77.62,79.46l14.04-.32c-.73,1.53-.16,3.2.02,4.77l10.51.66-.64,3.51-13.74-.82c-.49.34-.47,3.54,0,3.87,3.32.55,7.52,0,10.71.79.37.09.59-.24.47.46l-1.16,2.42-13.22-.51-1.46,5.94-11.93-.79c-1.85-1.11-2.98-3.01-4.27-4.67-6.42-1.28-13.14-1.27-19.65-2.22v-2.55s3.36.02,3.36.02l.15-4.49h-4.79c-.08-.23.32-.38.32-.48v-5.27h2.87s0,1.28,0,1.28l6.07-.32v-4.79l22.34-.96v4.47ZM75.07,76.9l-2.19.05c-.55,1.06-.41,2.06-.04,3.15l2.41-.63-.18-2.57ZM67.09,77.22l-2.51.37-.05,2.51h2.56s0-2.88,0-2.88ZM68.69,80.09c2.38.37,3.21-.46,2.25-2.73l-2.57-.14.32,2.87ZM59.08,80.38c.03-.66.26-2.33-.27-2.7l-2.23.2-.02,2.86,2.52-.35ZM62.94,77.54l-2.41.3.16,2.43,2.12-.16.14-2.57Z"/>
  <path class="cls-1" d="M175.83,91.67l1.36,2.78c-.47,0-.96.04-1.43,0-22.69-2.14-45.69-3.42-68.29-6.06-.55-.06-1.4-.19-1.91-.32-.42-.11-.52.27-.49-.47.02-.39.55-2.59.68-2.68.88-.08,1.79-.09,2.67-.04,12.77.69,26.72,2.57,39.57,3.83,9.28.91,18.6,1.83,27.84,2.96Z"/>
  <path class="cls-1" d="M168.24,97.36l.02.92.63-.15-.15-.81,8.88.95.53,2.25-36.09-2.69-.3-1.14c-.62-.11-.15.74-.33.93-.08.09-2.02.06-2.39.04-5.62-.36-11.24-1.15-16.89-1.27l-.17-.98c-.83-.33-.51.57-.84.64l-19.26-1.45.97-2.71,65.39,5.46Z"/>
  <path class="cls-1" d="M81.45,76.59l-.36-3.79-3.79-.04,1.32-13.04,9.71,1.21-1.43,14.17.49.48c1.47.07,2.97.16,4.42.37.56.08.53-.17.48.63h-10.85Z"/>
  <path class="cls-1" d="M88.79,58.4l-10.21-1.28,1.03-6.3c1-1,7.86-.29,9.04.86s-.35,5.05.14,6.72Z"/>
  <path class="cls-1" d="M111.71,55.26l-.27,6.33-9.58-.96.84-6.41c2.98-.72,6.25-.27,9,1.04Z"/>
  <path class="cls-1" d="M198.25,98.61v3.19h-5.27l-3.25,4.41c-.33.1-6.45-.15-6.97-.25-1.11-.22-1.15-2.77-1.43-3.83,1.6-.32,9.28.83,9.84-.85.24-.73-.05-1.86.05-2.66h7.02Z"/>
  <path class="cls-1" d="M133.15,64.78l-9.26-.96c.31-1.3.04-5.33.79-6.07.88-.87,7.13-.23,8.47.8.96.95-.43,4.81,0,6.23Z"/>
  <path class="cls-1" d="M206.55,98.61v2.87c-2.25-.11-4.45.46-6.7.32v-3.19h6.7Z"/>
  <path class="cls-1" d="M40.28,89.35v2.55c-2.97-.16-5.94-.66-8.94-.64v-1.92h8.94Z"/>
  <path class="cls-1" d="M86.88,100.52l.6-2.69,6.74.14-1.59,2.73c-.57.38-.95-.18-1.12-.18h-4.63Z"/>
  <path class="cls-1" d="M28.8,89.03v1.92c-1.19-.59-8.13-.37-8.31-1.16v-1.07s8.31.32,8.31.32Z"/>
</svg>