<?xml version="1.0" encoding="UTF-8"?>
<svg id="Layer_1" data-name="Layer 1" xmlns="http://www.w3.org/2000/svg" viewBox="0 0 210.06 179.62">
  <defs>
    <style>
      .cls-1 {
        fill: #ff541c;
      }
    </style>
  </defs>
  <path class="cls-1" d="M199.86,98.57h-82.4c.92-7.15-4.05-9.76-10.33-10.17-7.44-.48-15.78.7-14.78,10.17H9.95v-24.48c0-1.03,2.68-3.82,3.95-3.98l181.92.09c1.48.22,4.04,3.02,4.04,4.33v24.04Z"/>
  <path class="cls-1" d="M66.79,66.37l-6.4-.41c-2.97-2.81-7.09-16.65-12.57-10.42-3.78,4.3,3.18,9.54,2.23,10.39l-6.19.2-6.44-9.94c-12.59-.89-21.81-11.07-18.97-23.88.3-1.37,1.49-5.99,3.2-4.77,2.14,1.52,6.42,11.76,8.13,12.59,1.97.96,6.22-.8,8.59-.23,1.68-.32,4.11-6.06,5.05-7.71,0-1.76-6.33-9.88-7.41-12.4-.27-.63-.77-1.25-.3-1.96.86-1.18,5.66.19,6.96.59,11.65,3.59,16.31,16.02,11.47,26.93,3.42,6.63,8.81,12.97,12.24,19.47.28.53.61.83.43,1.55Z"/>
  <path class="cls-1" d="M154.84,11.75l-.18,4.36c.43,1.6,2.85,2.2,4.22,1.53,1.19-.58,1.27-3.61,3.19-3.24l38.04,15.35-6.85,17.47-39.2-15.29c-.3-.41,1.77-4.97-1.33-5.96s-3.57,3.22-5.5,3.33l-4.9-2.18,6.65-17.22.67-.25,5.19,2.11Z"/>
  <path class="cls-1" d="M69.43,51.15c.59-4.15,5.21-8.71,9.16-9.79,2.48-.68,27.85-1.24,29.08-.45.07.04.12,1.45.96.74.06-.05-.07-.62.11-.74.95-.67,20.9-.1,23.16.64,3.44,1.12,8.47,5.84,8.47,9.61v14.78h-7.27c-.13,0-.34.56-.66.44v-11.69c0-.16-.76-2.28-.94-2.59-1.25-2.2-3.54-2.77-5.87-2.94-13.76-1.03-28.82.77-42.72.06-2.34.12-5.55,3.21-5.55,5.47v11.69h-7.93c.48-4.72-.65-10.66,0-15.22Z"/>
  <path class="cls-1" d="M173.42,43.02l-8.87,22.85c-4.87,1.2-9.57-.14-14.48.06l11.04-27.32,12.3,4.41Z"/>
  <path class="cls-1" d="M103.36,21.16c-.35-2.38-2.8-6.63-2.94-8.88-.05-.82,2.1-11.74,2.45-12.26l6.85-.27c.17,3.64,2.58,9.66,2.42,13-.09,1.93-3.05,7.97-3.05,8.85v15.66h-5.73c-.52-4.97.7-11.31,0-16.1Z"/>
  <path class="cls-1" d="M103.23,95.57c2.22-.51,5.66.42,6.2,2.87.32,1.44.36,9.88.08,11.36-.64,3.39-8.32,3.21-9.15.36-.37-1.28-.27-9.73.01-11.27s1.33-2.97,2.85-3.32Z"/>
  <path class="cls-1" d="M96.86,65.82c-.85-1.74-1.09-4.33.81-5.37,1.77-.97,12.31-.99,14.69-.66,4.43.62,4.34,6.09,1.79,6.56-2.72-.38-15.98.77-17.29-.53Z"/>
  <path class="cls-1" d="M170.78,14.76c.61-1.82,1.38-2.02,3.2-1.66.56.11,7.16,2.78,7.54,3.04.77.53,1.19,1.41,1.15,2.35l-1.01.62-10.88-4.35Z"/>
  <rect class="cls-1" x="103.36" y="52.69" width="5.73" height="4.86"/>
  <path class="cls-1" d="M117.46,104.74v8.6c0,1.65-4.48,5.32-6.16,5.75-1.85.47-10.93.48-12.8,0-1.65-.42-6.16-4.22-6.16-5.75v-8.6h-55.3c.23,1.58-1.31,1.64-.66,0h-20.27s0,64.97,0,64.97v4.79c0,2.82,2.29,5.11,5.11,5.11h109.78c7.12.25,14.16.39,20.91,0h36.69c2.76,0,4.99-2.19,5.09-4.92,0-.01.02-.04.02-.05v-69.91h-76.23Z"/>
</svg>