<?xml version="1.0" encoding="UTF-8"?>
<svg id="Layer_1" data-name="Layer 1" xmlns="http://www.w3.org/2000/svg" viewBox="0 0 210.06 179.62">
  <defs>
    <style>
      .cls-1 {
        fill: #ff541c;
      }
    </style>
  </defs>
  <path class="cls-1" d="M6.89,71.31v101.34c0,2.78,5.23,7.33,8.26,6.88,60.79-.45,121.77.8,182.44-.63,1.89.03,5.58-4.45,5.58-5.78v-101.82H6.89ZM92.97,153.95h-16.08l-.47-38.81-13.01,5.66c-.55-.31-.54-.68-.69-1.19-.41-1.46-1.73-10.18-1.46-11.26,7.38-2.93,15.62-6.79,18.94-14.51h12.77v60.12ZM137.44,154.68c-12.14,2.76-27.71-2.29-30.09-15.9l14.73-2.7c1.39,3.2,2.29,6.19,6.23,6.86,13.32,2.28,13.19-18.18,1.37-17.37-3.09.21-4.77,2.25-7.19,3.77l-12.96-1.93,4.7-33.11h36.89v14.2l-24.57.03-.98,6.83c2.03-.05,3.77-1.01,5.9-1.19,27.83-2.36,30.15,35.02,5.94,40.51Z"/>
  <path class="cls-1" d="M32.91,12.43c-.15,1.7.27,3.7-.1,5.35-.33,1.46-1.93,2.65-2.22,4.87-2.01,15.13,21.31,14.54,18.76-.4-.35-2.06-2.02-3.21-2.24-4.38-.3-1.6.19-3.75-.01-5.44h115.88c-.19,1.7.28,3.8-.02,5.43-.19,1.01-1.14,1.77-1.49,2.77-1.76,4.92.16,10.5,5.16,12.54,7.62,3.11,14.14-3.03,12.88-11-.29-1.82-1.92-3-2.23-4.39-.37-1.64.05-3.65-.1-5.34h18.68c2.33,0,7.33,4.62,7.33,6.86v43.32H6.89V19.77c0-2.88,4.46-7.34,7.33-7.34h18.68Z"/>
  <path class="cls-1" d="M168.5.22c2.73-.62,5.79.53,6.26,3.48.66,4.2,0,11.5,0,16.09,0,1.25.52,2.27.46,3.69-.34,7.52-8.98,7.22-9.87,1.47-.55-3.58-.5-17.11.01-20.76.24-1.74,1.29-3.54,3.13-3.97Z"/>
  <path class="cls-1" d="M37.97.22c3.58-.83,6.32.63,6.77,4.38s.52,16.68-.04,20.34c-.9,5.82-8.79,5.5-9.44.04-.43-3.65-.57-18.43.03-21.76.22-1.21,1.45-2.72,2.68-3Z"/>
</svg>