<?xml version="1.0" encoding="UTF-8"?>
<svg id="Layer_1" data-name="Layer 1" xmlns="http://www.w3.org/2000/svg" viewBox="0 0 210.06 179.62">
  <defs>
    <style>
      .cls-1 {
        fill: #ff541c;
      }
    </style>
  </defs>
  <path class="cls-1" d="M103.06,69.62c-.77.16-.43,1.33-1.04,2.05-1.24,1.47-5.5.33-7.29-.11-11.95-2.95-19.15-13.99-19.32-26.07-.02-1.67.74-2.68.86-4.12.25-3.05-.55-17.94.2-19.19s3.06-1.07,3.41.7c.62,3.15-.64,18.21.6,19.42,9.76,2.63,17.66,8.01,21.11,17.85.48,1.38.37,2.96,1.26,4.1.61-1.8-.45-4.04,1.02-5.57.94-.38,2.26-.49,2.86.45l.85,5.12c1.29-7.95,6.18-14.48,13.07-18.48,1.79-1.04,8.3-3.14,8.79-3.58.19-.17.82-2.27.82-2.48v-17.33c0-.89,3.32-1.79,3.73,1.22.65,4.77-.09,12.23-.04,17.36.1,9.3.46,16.18-6.37,23.71-3.88,4.28-11.98,7.96-17.75,7.86-.68-.01-.97-.13-1.45-.62-.75-.76-.42-1.99-1.21-2.29v21.04l2.27-6.19c4.63-9.27,14.54-15.63,24.88-16.03,2.54,15.57-9.16,31.51-25.64,30.82l-1.5-2.42v20.63c1.14-1.29,1.27-3.5,1.99-5.23,4.18-10.08,14.34-16.1,24.98-17.07,2.92,13.52-6.6,28.02-20.27,30.45-.73.13-4.16.5-4.64.36-1.63-.48-.96-2.03-2.05-2.73v21.04l2.52-6.76c4.88-9.44,14.32-14.7,24.67-15.93,2.17,13.77-6.38,28.24-20.5,30.83-.88.16-3.95.58-4.65.35-1.64-.52-.95-2-2.05-2.72v28.67c0,2.09-4.12,1.43-4.12,0v-28.67c-.89.21-.5,1.62-1.25,2.26-1.54,1.3-7.65-.41-9.58-1.11-11.47-4.13-18.36-17.31-16.31-29.14,10.17.21,19.89,6.48,24.62,15.46l2.52,6.76v-21.04c-.83.31-.37,1.49-1.25,2.26-1.96,1.72-9.87-1.04-12.22-2.18-9.7-4.74-15.48-17.34-13.78-27.88.76-1.06,7.85,1.38,9.22,1.92,6.88,2.73,12.83,7.82,15.91,14.61l2.12,5.51v-21.04c-.87.45-.48,2.13-1.65,2.68-2.42,1.15-9.8-1.37-12.23-2.61-8.03-4.1-12.98-13.36-13.68-22.2-.56-7.07.12-6.68,6.54-4.89,8.42,2.35,15.64,8.27,19.16,16.3l1.86,5.36v-21.45Z"/>
  <path class="cls-1" d="M103.57.83c1.31-1.32,3.17-.16,3.52,1.43,1.06,4.8-.89,12.78.18,17.56.27,1.19,2.18,3.27,2.87,4.55,4.26,7.99,6.37,16.07,1.65,24.48-.89,1.58-4.67,6.57-6.45,6.59-9.71-5.73-11.5-17.03-7.42-27.07.95-2.33,4.88-7.6,5.13-8.9.83-4.47-.41-11.6,0-16.5.05-.64.07-1.69.53-2.15Z"/>
</svg>