<svg width="33" height="28" viewBox="0 0 33 28" fill="none" xmlns="http://www.w3.org/2000/svg">
<g clip-path="url(#clip0_492_4651)">
<path d="M19.0465 16.9446C18.9743 16.9306 18.9334 16.8558 18.8941 16.8012C18.3317 16.0343 17.9029 14.9867 17.3452 14.1933L17.3734 13.8909C17.5525 13.8862 17.7599 13.8753 17.7363 13.6539L15.9988 10.9368C15.9156 10.8854 15.6422 10.9867 15.6359 11.06L16.9587 13.2907C16.1544 12.5284 15.2149 11.7895 14.1733 11.3749C13.5622 11.1317 12.9071 10.968 12.2772 10.781C9.98983 10.1044 7.60037 9.56662 5.33344 8.84643C5.11351 8.77628 4.60608 8.49257 4.42699 8.50504C4.35629 8.50972 4.3233 8.52843 4.30131 8.59701C4.26046 8.7186 4.21491 9.08026 4.18977 9.23926C3.85515 11.3406 3.61479 13.4606 3.31002 15.5697C3.24404 16.0234 2.91885 17.18 3.11051 17.5526C3.15292 17.6336 3.32259 17.7365 3.40742 17.7958C4.58094 18.6204 6.00582 19.2548 7.20919 20.0545C7.37886 20.1107 7.45741 19.9407 7.5988 19.8722C7.77475 19.788 8.09523 19.6492 8.2806 19.6336C8.36072 19.6259 8.4377 19.6009 8.41571 19.7132C8.38429 19.788 7.32702 20.8293 7.25318 20.8729C7.17934 20.9166 7.13379 20.9462 7.04738 20.915L2.36743 18.452C2.14592 18.6407 2.4397 18.77 2.59523 18.8698C3.80174 19.6461 5.34601 20.3554 6.63421 21.0522C6.68134 21.0787 6.73476 21.0865 6.78974 21.0849C6.80702 21.1691 6.78032 21.2096 6.7379 21.2751C6.5698 21.5339 5.46698 22.3835 5.16221 22.5097C4.09551 22.9509 2.63136 22.5721 2.10351 21.5074C1.79403 20.8854 1.88357 20.569 1.90871 19.9298C1.94013 19.1457 1.44055 19.4388 1.18134 19.0834C0.948838 18.7638 1.1295 18.6968 1.14678 18.4739C1.15621 18.3632 0.55138 17.3655 0.442982 17.2408C0.237184 17.0054 -0.0173146 17.0288 0.00310812 16.5955C0.0172469 16.2884 0.144496 16.3866 0.248181 16.2432C0.367575 16.0826 0.645639 13.9906 0.717904 13.5916C0.763462 13.3406 0.948838 13.233 0.669204 12.9836L1.51439 8.14183C1.21748 7.48088 1.94327 7.04284 2.14907 6.40995C2.31088 5.90956 2.16321 5.5105 2.4397 4.97737C2.54338 4.77784 2.71619 4.53466 2.96598 4.52687C3.50796 4.50816 3.4357 5.02102 3.68077 5.16599C4.51182 5.38891 5.32402 5.71003 6.15035 5.94386C6.56352 6.06077 6.70962 6.11689 7.1275 5.99218L13.2103 7.85812C13.2795 7.8363 13.3486 7.61026 13.5324 7.60871C13.6738 7.60871 14.6541 7.89242 14.8599 7.95633C15.5291 8.16989 15.6815 8.33825 16.1198 8.85734C16.2392 8.9992 16.324 9.23146 16.4733 9.36864C16.6743 9.55259 17.0404 9.70847 17.2855 9.908C17.9186 10.4271 18.7496 11.629 19.235 12.3305C19.3749 12.5331 19.5021 12.7513 19.6372 12.9587L19.1879 14.9072C19.1345 14.9696 19.1235 14.9727 19.0497 14.9337C18.8549 14.8308 18.6396 14.5004 18.4009 14.4224C18.3427 14.6672 19.0512 15.4263 19.0512 15.5245V16.9493L19.0465 16.9446ZM2.86543 4.80746C2.51353 4.91346 2.6942 5.50582 3.05866 5.43411C3.48754 5.3515 3.40114 4.64534 2.86543 4.80746ZM6.66563 6.36786L3.7499 5.49647C3.63364 5.62897 4.30916 7.00855 4.35315 7.26264C5.17163 7.16599 5.93199 7.44503 6.71748 7.57909C8.20519 7.83318 9.69291 8.05609 11.1932 8.30395C11.5875 8.36942 12.0038 8.52063 12.4264 8.50504C12.4123 8.43489 12.2536 8.36319 12.1923 8.33513C11.9017 8.19951 11.4665 8.07636 11.1492 7.97192C9.71176 7.49647 8.24604 7.08805 6.79917 6.64222C6.68134 6.61416 6.73319 6.42866 6.66406 6.36942L6.66563 6.36786ZM3.7876 7.44347C3.47969 7.51206 3.51111 7.97192 3.77817 8.0218C4.36415 8.13092 4.43484 7.30161 3.7876 7.44347ZM15.815 8.7529C15.7066 8.62196 15.493 8.34604 15.3547 8.2681C15.2165 8.19016 13.5874 7.69288 13.5151 7.75368L13.4853 7.91736C13.6989 7.99842 13.8324 8.04986 14.0147 8.1886C14.2252 8.34916 14.4655 8.81681 14.6588 8.90722C15.0264 9.08182 15.7286 9.01011 16.1198 9.25952C16.1434 9.03349 15.9407 8.90255 15.8182 8.7529H15.815ZM2.00454 15.5916L2.0658 10.8948C2.08937 10.3663 2.19305 9.69132 2.18206 9.17691C2.18049 9.08493 2.18206 8.99608 2.09565 8.93528C1.70605 10.2977 1.60551 11.7537 1.28189 13.127L1.04467 13.2689L0.603222 16.1902L2.00454 15.59V15.5916ZM15.7789 10.7513C16.0664 10.4661 15.6045 9.94698 15.2777 10.2806C14.9274 10.6375 15.4961 11.0319 15.7789 10.7513ZM2.53867 15.2346C2.21662 15.3328 2.31402 15.9813 2.73347 15.8597C3.05395 15.7677 3.01782 15.0896 2.53867 15.2346ZM0.944125 16.6905C0.904851 16.7358 0.876573 16.8028 0.879715 16.862C0.885999 16.9898 1.3243 17.7927 1.42484 17.9298C1.45941 17.9766 1.47669 18.0343 1.55209 18.0171C1.60551 18.0062 1.92913 17.5121 1.94641 17.4404C2.02496 17.1348 1.92127 16.6235 2.00611 16.279C1.95741 16.1605 1.893 16.1902 1.7956 16.2135C1.73119 16.2291 0.977116 16.6516 0.945696 16.689L0.944125 16.6905ZM0.644068 16.4739C0.416276 16.2478 -0.0628731 16.4988 0.16649 16.8683C0.405279 17.2548 0.931557 16.7576 0.644068 16.4739ZM2.76018 17.523C3.11836 17.1676 2.38471 16.6718 2.24175 17.1442C2.13336 17.5027 2.5481 17.7334 2.76018 17.523Z" fill="#FF541C"/>
<path d="M19.8888 18.7716C19.7082 18.7405 19.4112 18.5035 19.3767 18.3118C19.3013 17.8987 19.3515 16.7935 19.372 16.3243C19.4505 14.4614 20.1418 12.5222 20.8565 10.8075C21.0733 10.2853 21.2666 9.48559 21.9484 9.52457L27.7312 9.54951C27.9731 9.61498 28.1223 9.80048 28.1569 10.0421C28.2716 10.8511 28.1805 11.9377 28.2166 12.7779C28.2197 12.8699 28.2637 12.9556 28.27 13.0476C28.292 13.3889 28.138 14.0343 28.6203 14.0982C29.4954 14.2136 30.672 13.9642 31.5392 14.1091C31.9115 14.1715 32.1896 14.5082 32.2304 14.8761C32.3043 15.5339 32.3106 17.3437 32.2304 17.9953C32.1786 18.4256 31.7324 18.7171 31.3303 18.7685C30.4018 18.8886 29.2566 18.6828 28.3046 18.781C28.1789 18.8215 28.1883 19.2783 28.2229 19.3843C28.2794 19.5573 29.0963 19.4342 29.3163 19.484C29.4639 19.5168 29.5394 19.6789 29.6556 19.6914C29.8363 19.7101 29.8677 19.5059 30.0342 19.4747C30.4034 19.4045 31.346 19.4591 31.6979 19.5963C32.8981 20.0655 33.3348 21.3967 32.7284 22.5207C32.4865 22.9696 32.0372 23.1707 31.6052 23.3952C31.5062 23.3889 31.5031 22.9603 31.3617 23.0741C31.2863 23.6446 30.9469 23.403 30.5762 23.3936C29.8426 23.3765 29.178 23.3843 28.4554 23.3936C28.2936 23.3952 28.1443 23.4653 27.9668 23.4544C27.7893 23.4435 27.7029 23.3359 27.5898 23.3359C27.4767 23.3359 27.3981 23.4342 27.2677 23.4529C26.732 23.5292 26.212 23.3827 25.7423 23.3406C25.6386 23.3313 25.5365 23.4482 25.3684 23.456C25.2003 23.4638 24.0645 23.4653 23.9608 23.4513C23.876 23.4388 23.8131 23.35 23.7362 23.3406C23.6372 23.3297 23.5461 23.4357 23.4172 23.4529C23.0119 23.5105 21.8903 23.4575 21.4645 23.3936C21.3797 23.3812 21.3106 23.2876 21.2446 23.2876C21.1409 23.2876 21.1032 23.417 21.0309 23.4295C20.8487 23.4575 19.7977 23.4217 19.5605 23.3999C19.4458 23.3889 19.3563 23.2892 19.3013 23.297C19.2463 23.3048 19.1787 23.4045 19.1049 23.4264C18.9619 23.47 17.4601 23.4139 17.2433 23.3827C15.4398 23.1271 15.0801 20.5846 16.6432 19.7506C17.1679 19.47 18.3791 19.3952 18.9698 19.4684C19.2007 19.4965 19.1489 19.682 19.284 19.6805C19.3861 19.6992 19.4914 19.4716 19.5102 19.4716H21.3813V18.7732C20.9351 18.7186 20.313 18.848 19.8888 18.7732V18.7716ZM22.1243 10.2385C21.8306 10.2915 21.7112 10.5441 21.5949 10.7888C21.2964 11.4108 20.9649 12.3928 20.7434 13.0631C20.5911 13.5261 20.1936 14.2479 20.8613 14.4209C21.928 14.3414 23.125 14.5176 24.176 14.4209C24.8264 14.3601 24.7463 13.8987 24.7966 13.3702C24.8657 12.6563 24.938 11.774 24.9615 11.0616C24.9757 10.6189 24.9615 10.2837 24.4447 10.226C24.0079 10.1762 22.5344 10.1653 22.1243 10.2385ZM26.0298 10.237C25.7533 10.2978 25.6999 10.5581 25.6732 10.7966C25.6072 11.3827 25.6449 12.1154 25.6119 12.7249C25.5915 13.0943 25.2883 14.3227 25.8036 14.4178C25.9559 14.4458 27.0761 14.4443 27.2017 14.4084C27.4044 14.3492 27.4924 13.9844 27.5112 13.8005C27.5678 13.2346 27.5945 11.2112 27.4877 10.7077C27.4452 10.5113 27.3258 10.3243 27.1232 10.2619C26.9347 10.2042 26.223 10.1949 26.0314 10.237H26.0298ZM24.4557 15.0803L20.3868 15.0756C20.236 15.1426 20.203 15.3188 20.1857 15.4669C20.159 15.7007 20.1512 16.7062 20.2093 16.8948C20.3334 17.2876 21.221 17.2705 21.5713 17.2705C22.6647 17.2705 23.4487 16.8714 24.1415 16.0421C24.3284 15.8192 24.7981 15.3562 24.4557 15.0803ZM29.2189 15.9236H31.1182C31.1983 15.9236 31.236 15.6695 31.1763 15.5978C31.0742 15.4544 29.5771 15.4638 29.3524 15.5168C29.2644 15.537 29.1136 15.5994 29.0901 15.6914C29.0571 15.7677 29.1686 15.9096 29.2204 15.9236H29.2189ZM29.0901 16.1995C29.0586 16.2494 29.0759 16.4053 29.1089 16.4614C29.2629 16.7249 30.7302 16.4412 31.0616 16.5144L31.2014 16.3788L31.1449 16.2167C31.0726 16.1606 30.9894 16.1465 30.9014 16.1356C30.6846 16.1107 29.1403 16.1185 29.0901 16.198V16.1995ZM29.2189 17.1598H31.1182L31.2454 16.9618C31.2517 16.8995 31.1967 16.8356 31.1449 16.8106C31.0931 16.7857 30.2761 16.7264 30.1426 16.7264C30.0091 16.7264 29.178 16.7794 29.1372 16.8075C29.0178 16.8886 29.1152 17.1302 29.2204 17.1598H29.2189ZM17.4601 20.0748C15.8954 20.3741 15.8593 22.4755 17.3957 22.8543L31.1166 22.8574C32.8368 22.5846 32.8148 20.2822 31.0616 20.0639L17.4585 20.0764L17.4601 20.0748Z" fill="#FF541C"/>
<path d="M29.8423 20.5456C29.4496 21.099 29.4842 21.8145 29.7889 22.3991L18.8848 22.3726C19.2822 21.8659 19.2571 21.0631 18.8848 20.5456H29.8423ZM22.7211 21.4154C22.3001 21.5027 22.3849 22.2634 22.9677 22.0935C23.3448 21.9828 23.1657 21.3235 22.7211 21.4154ZM28.3939 21.5292C28.0876 21.9049 28.6877 22.4193 29.0003 21.9969C29.2972 21.5931 28.6798 21.18 28.3939 21.5292Z" fill="#FF541C"/>
<path d="M30.8588 20.5035C31.8626 20.3585 32.3072 21.869 31.4715 22.2962C30.0749 23.0101 29.4826 20.703 30.8588 20.5035Z" fill="#FF541C"/>
<path d="M17.4582 20.558C18.8893 20.265 18.9977 22.3367 17.7661 22.4255C16.6554 22.505 16.3554 20.7841 17.4582 20.558Z" fill="#FF541C"/>
</g>
<defs>
<clipPath id="clip0_492_4651">
<rect width="33" height="28" fill="white"/>
</clipPath>
</defs>
</svg>
