<?xml version="1.0" encoding="UTF-8"?>
<svg id="Layer_1" data-name="Layer 1" xmlns="http://www.w3.org/2000/svg" viewBox="0 0 210.06 179.62">
  <defs>
    <style>
      .cls-1 {
        fill: #ff541c;
      }
    </style>
  </defs>
  <path class="cls-1" d="M131.01,85.71l-38.08,22.19v-22.92l-38.62,25.05,1.98-25.05-36.19,25.83,1.01,68.73,147.03-.22.46-94.35-37.59,24.13v-23.4ZM56.07,138.95h-26.86v-13.37h26.86v13.37ZM90.54,138.95h-26.86v-13.37h26.86v13.37ZM132.64,125.58h26.86v13.37h-26.86v-13.37ZM125.02,138.95h-26.86v-13.37h26.86v13.37Z"/>
  <polygon class="cls-1" points="114.78 26.8 101.44 27.31 97.4 100.89 118.15 86.16 114.78 26.8"/>
  <polygon class="cls-1" points="156.86 86.28 154.77 27.3 141.57 26.55 137.91 98.03 156.86 86.28"/>
  <path class="cls-1" d="M183.87,5.4c-2.61-.31-4.42.89-6.88.87-2.59-8.46-15.46-8.2-17.87.33-2.79-.08-7.59-.99-9.51,1.8-.68.99-.36,3.06-.85,3.73-.43.58-3.24.55-4.23,3-3.35,8.29,9.81,10.58,10.26,2.31,1.65-.11,3.53.25,5.09-.45,1.23-.55,1.17-1.77,2.38-2.01,1.34-.26,1.3,1.03,2.59,1.75,2.46,1.37,5.05,1.38,7.61.3,1.52-.64,3-2.75,4.48-1.79,1.17.76.88,2.06,3.73,2.54,11.53,1.94,12.03-11.35,3.21-12.39Z"/>
  <path class="cls-1" d="M105.16,21.45h0s0,0,0,0c0,0,0,0,0,0h0s0,0,0,0c.37,2.11,4.79,1.76,6.25.59,1-.81,1.42-2.97,2.37-3.42,1.24-.6,2.75.05,4.01-.33.67-.2,1.11-1.19,1.53-1.23,1.11-.1,3.84,2.79,7.51,1.59,1.2-.39,1.44-1.61,3.12-1.76,1.46-.13,1.02.77,1.79,1.15,2.17,1.1,6.03,1.39,7.93-.29,5.24-4.65-3.29-10.98-8.25-7.6-3.28-6.91-12.19-7.13-15.53-.02-2.61-.65-5.83-.87-7.29,1.85-.39.72-.35,1.98-.71,2.43-.4.49-2.41.74-3,2.06-.67,1.49-.12,3.48.28,4.98,0,0,0,0,0,0Z"/>
</svg>