<?xml version="1.0" encoding="UTF-8"?>
<svg id="Layer_1" data-name="Layer 1" xmlns="http://www.w3.org/2000/svg" viewBox="0 0 210.06 179.62">
  <defs>
    <style>
      .cls-1 {
        fill: #ff541c;
      }
    </style>
  </defs>
  <path class="cls-1" d="M83.73,26.8c1.63,1.54,3.69,16.31,5.02,19.38l-3.37,16.93c-1.07.54-2.17.83-3.37.93-8.27.69-17.47-.56-25.85,0-2.28-.27-3.3-1.74-3.49-3.89-.9-9.77.73-20.89,0-30.81.37-4.14,2.42-3.03,5.13-3.04,7.47-.02,16.55-.66,23.8-.03.67.06,1.63.05,2.13.53ZM70,32.95c-1.23.88-.48,2.87-.55,3.76-.31,3.93-.82,9.27-.38,13.18.16,1.39.35,2.1,1.83,2.27,2.32.27,9.24.3,11.52,0,2.66-.35,2.05-4.23,1.77-6.32-.21-1.58-2.63-12.16-3.19-12.8-.6-.68-1.08-.54-1.85-.61-1.44-.14-8.27-.1-9.15.53Z"/>
  <path class="cls-1" d="M58.02,67.31h2.87s.21,2.06.21,2.06c.89-.02,2.57-2.22,3.32-2.37s2.76.7,3.84.31l-6.14,5.53,11.47,9.85.82-.42v-14.97h2.46v98.46h-18.85v-98.46ZM60.89,75.93v19.69l11.51-9.26c.08-.65-.23-.98-.62-1.43-1.69-1.98-7.38-6.63-9.66-8.38-.41-.32-.52-.79-1.23-.61ZM74.41,109.15v-19.9l-.82-.41c-1.67,1.92-3.87,3.26-5.74,4.92-1.09.97-5.52,4.62-5.35,5.72l11.91,9.67ZM60.89,102.18v20.1l11.89-10.46-11.89-9.64ZM74.41,135l-.61-20.1c-3.5,3.7-8.17,6.32-11.24,10.4.12.69,9.28,8.59,10.41,9.3.5.32.81.52,1.45.39ZM60.89,148.13c.91-.14,1.94-1.07,2.65-1.65,3.04-2.49,5.93-5.34,8.79-8.04.13-.73-7.21-6.95-8.38-7.93-.84-.7-2.03-1.79-3.06-2.06v19.69ZM74,141.56l-2.65,1.65-8.85,7.98.61,1.06,10.89,9v-19.69ZM60.89,154.28v8.61h9.22c.09,0,.47.61.61.41l-.08-1.16-9.75-7.87Z"/>
  <path class="cls-1" d="M91.21,43.11l-.41-2.46h15.98c-.12-1.1-1.45-2.12-2.24-2.88-2.28-2.19-4.88-4.18-7.06-6.51l-.93.15-6.56,5.96-.76-3.04c.45-.45,4.29-3.33,3.62-3.93l-4.45-.06-.47-2.4h93.65l15.17,14.36-.41.82h-105.12ZM121.13,30.39h-19.67l.28,1.25c2.06.72,8.09,8.08,9.37,8.21.47.05.88-.08,1.23-.41,2.16-2.62,4.96-4.67,7.36-7.01.18-.18,1.77-1.78,1.43-2.04ZM148.59,30.39h-18.65l-.41.82c1.43,1.16,8.46,8.54,9.45,8.64.58.06.8-.15,1.23-.41.75-.44,7.03-6.84,7.77-7.81.32-.41.79-.52.61-1.23ZM176.05,30.39h-18.85c-.18.72.3.82.61,1.23,2.26,2.95,6.22,5.71,9.02,8.22.6,0,7.82-7.19,8.61-8.22.32-.41.79-.52.61-1.23ZM135.07,40.65l-10.04-9.45c-2.97,2.62-6.12,5.41-9.01,8.23-.4.39-.77.53-.62,1.22h19.67ZM162.53,40.65c.18-.72-.3-.82-.61-1.23-.79-1.04-8.41-8.22-9.02-8.22-2.6,2.27-5.32,4.59-7.8,6.98-.67.65-1.8,1.47-1.83,2.47h19.26ZM171.13,40.65h19.67c.26-.97-.25-.69-.52-.94-3.23-2.86-6.22-6.17-9.87-8.46-.59.11-7.97,7.25-8.67,8.16-.32.41-.79.52-.61,1.23Z"/>
  <path class="cls-1" d="M39.98,179.71c-.73-5.42,1.47-6.63,6.56-6.15-1.35-6.08,4.58-5.03,8.83-4.94,8.57.17,17.23.54,25.82.45,4.57-.05,8.14-2.23,7.57,4.9,4.78-1.17,6.72,1.02,6.56,5.75h-55.33Z"/>
  <path class="cls-1" d="M14.86,31.29c1.29-.38,8.82-.23,10.59-.09,2.74.21,4.04.1,4.31,3.07.3,3.39.39,11.11,0,14.4-.17,1.48-.88,1.67-2.27,1.83-1.86.21-11.13.26-12.53-.19-.34-.11-.84-.34-1.01-.63-.52-.88-.15-6.79-.2-8.41-.07-2.21-.49-5.22-.44-7.38.02-.9.63-2.32,1.54-2.59Z"/>
  <path class="cls-1" d="M169.49,25.88c.1.72-.93.39-1.43.41-3.08.12-7.23.25-10.24,0-4.71-.41-11.34-2.43-16.2-3.48-22.9-4.92-45.65-10.6-68.57-15.46l-1.09-3.21,97.54,21.75Z"/>
  <path class="cls-1" d="M180.15,94.38c1.36,4.09-2.52,4.5-3.48,6.57-1.35,2.92,2.87,5.35,5.01,3.16.66-.68.65-2.88,2.16-2.76,1.22,9.24-12.3,7.35-9.65-1.26.65-2.12,3.63-2.08,3.11-4.69-.33-1.68-1.95-.46-2.85-1.68-.22-.3-1.8-4.17-1.9-4.66-1.27-6.12,5.12-6.22,9.44-5.34,1.73.35,3.21,3.21,2.93,4.92-.32,1.87-2.23,6.72-4.76,5.73Z"/>
  <path class="cls-1" d="M73.59,23l-2.85-.02-3.3-18.03c-.82.16-.67.87-.82,1.44-1.34,5.27-1.7,11.24-2.89,16.59l-2.85.02,1.64-9.02,1.22.41c.4-1.1-.75-.66-.84-1.08-.17-.85,1.63-10.63,2.08-11.83.81-2.14,3.37-2.04,4.11-.03l4.48,21.56Z"/>
  <path class="cls-1" d="M62.11,5.37l-1.07,3.65c-9.79,5.73-19.29,12.88-29.13,18.42-2.91,1.64-4.38,2.12-7.91,1.72L62.11,5.37Z"/>
  <path class="cls-1" d="M177.28,52.13h2.87c-.34,1.93-.01,3.73.02,5.52.1,6.61-.39,13.19-.46,19.71-.03,2.47,2.06,4.78-2.42,4.31v-29.54Z"/>
  <path class="cls-1" d="M187.53,45.16c.2,1.36-.81,3.78-2.06,4.3-.84.35-12.19.43-13.23.13-1.66-.48-2.14-2.95-2.34-4.43h17.62Z"/>
  <rect class="cls-1" x="32.2" y="39" width="18.44" height="2.87"/>
</svg>