<?xml version="1.0" encoding="UTF-8"?>
<svg id="Layer_1" data-name="Layer 1" xmlns="http://www.w3.org/2000/svg" viewBox="0 0 210.06 179.62">
  <defs>
    <style>
      .cls-1 {
        fill: #ff541c;
      }
    </style>
  </defs>
  <path class="cls-1" d="M153.22.03c.17,1.26-.67,2.1-1.32,3.01-3.79,5.24-8.55,9.95-12.35,15.21-1.06,2.12.57,8.36,2.1,10.16,8.68,8.11,20.02,14.72,28.67,22.63.45.41,2.28,1.87,1.8,2.53-5.13,1.53-9.36,5.31-13.95,7.75-8.32,4.41-17.62,7.37-25.14,13.15l-75.83,101.26c-13.56,11.18-30.63-3.82-21.86-18.77,23.83-31.42,52.14-60.69,75.99-91.92,4.95-6.48,6.68-11.03,7.19-19.35.78-12.79-5.74-21.64,4.08-33.16C129.58,4.35,142.57-.46,153.22.03ZM148.45,47.64l-12.33-9.18c-.91,0-3.08,2.77-3.82,3.66-.94,1.13-6.2,7.87-6.06,8.59l13.97,11.07c.54,0,4.21-4.57,4.83-5.4s4.23-5.94,4.38-6.39c.27-.81-.36-1.75-.97-2.34ZM41.01,159.31c-2.01,2.14-2.42,7.59-.9,10.02,4.98,7.96,16.69,2.9,15.58-5.86-.82-6.49-10.53-8.57-14.68-4.16Z"/>
  <path class="cls-1" d="M175.69,17.37c2.46,10.11,2.39,22.7-5.35,30.48l-8.7-6.5-.76-5.83c.02-.58.34-1.02.58-1.51.96-1.9,10.31-14.15,11.91-15.64.74-.69,1.13-1.22,2.31-1.01Z"/>
  <path class="cls-1" d="M145.05,47.98l-1.04,3.86,1.06,1.04c.68,3.48-3.57,2.96-4.03,3.34-.24.2-.04,1.57-.85,1.96l-1.28-.26.86-3.57c-2.17-3.16-2.35.17-3.91.54-2.1.49-.09-3.73-.52-4.34-1.89-.74-2.38,0-3.31,1.52l-1.26-.79c1.67-2.89-1.29-5.14,1.75-7.42.56-.42,1.23.04,1.78-.22.79-.38,3.44-4.19,3-.61-.23,1.87-1.72,2.15.87,3.93,2.8-3.4,4.32-3.01,2.31,1.3,1.51,3.76,2.38.12,4.59-.26Z"/>
</svg>