<?xml version="1.0" encoding="UTF-8"?>
<svg id="Layer_1" data-name="Layer 1" xmlns="http://www.w3.org/2000/svg" viewBox="0 0 210.06 179.62">
  <defs>
    <style>
      .cls-1 {
        fill: #ff541c;
      }
    </style>
  </defs>
  <path class="cls-1" d="M203.88,55.29c-16.39-.09-32.73-.58-49.08-.46-1.39,0-1.8.79-2.33.87-.54.08-4.57-2.43-5.09.31l-.03,37.41c3.48.97.09,1.07,0,1.39-.37,3.03.77,21.34-.41,22.54-1.54,1.56-4.87.19-6.57.2-29.28.17-58.48.37-87.79.43-5.23,0-10.95-.79-16.29-.43-2.96.2-4.3.55-5.65,3.37-1.45,3.01,2.56,1.88,4.54,2.06v17.59c2.22.48,4.02.38,6.24-.06,1.2-1-1.45-8.01,2.16-10.24.62-.38,1.89-.48,2.21-.95,1.09-1.6-1.4-7.77,3.61-8.56l23.17.21c3.07,1.39,1.2,7.54,1.85,8.29.21.24,2.59.09,3.77,1.86,1.85,2.78-.21,6.54,1.44,7.58,3.34,2.1,3.94-2.96,5.19-5.03,10.33-17.09,36.1-16.54,45.79.91.69,1.24,2.26,6.42,2.6,6.48.33.05,1.88.03,1.97-.06,6.73-24.5,39.22-26.97,49.81-3.57.47,1.03.72,3.74,1.81,4.05,1.66.48,5.28-.35,7.21,0l.69-75.54-1.36-1.13c1.85.44,1.27-1.27,2-2.73.97-1.93,3.05-3.04,5.09-3.47,1.5-.32,7.32-.13,7.72-1.3,1.17-3.47-2.71-1.99-4.26-2ZM183.2,87.38c-6.16-.03-14.28.56-20.27-.05-2.18-.22-3.51-.64-4.49-2.72l-.26-17.81c.06-2.53,1.01-4.63,3.5-5.55,2.31.02,5.26.53,7.53.39,1.17-.07,2.31-.75,3.3-.83,1.87-.15,4.69.69,6.63.82,1.66.11,3.58-.56,5.83.02,4.63,1.21,1.39,11.87,2.86,15.53-1.2,4.14,1.84,10.22-4.64,10.19Z"/>
  <path class="cls-1" d="M113.54,71.61c.92.78,1.33,14.32,2.27,16.48-.19,8.68-.52,17.66-2.27,26.26l-32.86.3c-.52-.37-.38-.73-.34-1.24.25-3.06,1.39-6.78,1.71-10.06.2-2.12.41-5.06.48-7.19.27-8.28-1.13-16.39-1.83-24.6.2-.2,4.24.18,5.18,0,2.02-.38.7-1.84.77-2.93.22-3.8-.21-10.05,1.52-13.28,4.31-8.04,17.79-6.62,19.37,2.65.42,2.43-.2,12.28.4,13.13.72,1.03,5.04-.01,5.61.47Z"/>
  <path class="cls-1" d="M74.84,34.13c-2.73,1.03-5.51,1.15-8.34.35l-1.57,3.25c-.12.09-.16.54-.45.67-.9.41-10.97.43-12.29.14-3.93-.88-4.31-7.89-2.32-10.7,1.19-1.68,4.04-1.9,4.93-2.73,1.11-1.04.37-4,1.02-5.74.89-2.38,3.3-3.42,4.92-5.08,1.48.27,3.01-.53,4.36-.45,1.69.11,4.87,2.41,5.43,2.23,4.09-9.91,19.4-10.86,25.23-2.22.58.86,1.26,3.35,1.89,3.54.7.21,3.61-.9,4.9-.9,7.1,0,16.25,6.94,8.79,13.34-3.77,3.23-8.4,2.99-12.78,1.14-3.99,8.11-15.69,8.3-20.8,1.33-.19-.05-2.42,1.49-2.92,1.81Z"/>
  <path class="cls-1" d="M143.73,71.61l.05,42.8h-26.59c-.41-.41,1.23-9.93,1.35-11.51.45-6.1.45-13.73,0-19.83-.12-1.59-1.76-11.09-1.35-11.51l26.54.05Z"/>
  <path class="cls-1" d="M178.25,131.99c-12.64-14.41-36.12-8.02-40.69,10.24-.16.65-.56,4.83-.35,5.13.79,1.1,14.63-.06,17.17.34,2.01-.18,2.6-2.81,4.24-3.33,4.47-1.42,6.12,1.52,6.3,5.51.06,1.31-.68,3.02-.37,3.91.44,1.25,7.02,5.95,6.74,7.71-.1.65-6.56,3.23-7.58,3.34-.58.07-1.29,0-1.46-.6-.33-1.11,0-5.61,0-7.22,0-.87-3.07-.27-3.41.19-.38.52-.23,3.42-.21,4.34.02.96,1.01,3.04-.24,3.31-.87.19-8.42-2.67-8.73-3.13-1.03-1.51,6.2-5.95,4.93-7.19-4.25-.96-4.89,1.65-7.83,3.58-1.32-.62-1.51-3.1-2.84-3.5-1.5-.45-3.91.14-5.54-.09,1.17,6.75,8.92,13.85,15.3,15.58,23,6.22,40.02-20.53,24.58-38.13ZM153.46,145.52c-1.94,0-8.19.4-9.46,0-1.89-.59,1.09-8.77,3.23-8.95.49-.04,6.88,6.13,7.14,6.71.41.9-.38,2.25-.92,2.25ZM157.09,141.03c-.56-.05-6.13-5.35-6.58-6.08-.33-.55-.6-1.12-.46-1.78.1-.48,7.35-3.76,8.6-2.98-.89,2.29,2.22,11.22-1.56,10.84ZM164.95,140.78c-.76.35-2.7.35-2.7-.44,0-2.09-.42-8.5,0-9.92.51-1.72,7.11,1.18,8.28,2.08,1.06.83.95,1.36.3,2.45-.23.4-5.51,5.65-5.88,5.83ZM166.98,143.27c.28-.6,6.72-6.8,7.22-6.8,1.68,0,4.4,7.29,3.82,9.05h-10.59c-.72,0-.78-1.53-.45-2.25ZM174.62,158.15c-.46.12-6.62-5.88-6.99-6.51-2.77-4.72,8.43-2.09,10.39-2.51.82.84-1.97,8.1-3.4,9.02Z"/>
  <path class="cls-1" d="M45.1,147.33c-.48-2.4-1.64-13.95.37-14.97,3.08,1.07,4.34.41,3.8-1.98-.24-1.43-.86-5.6.17-6.53.81-.74,19.28-.1,21.79.03.78,2.06.68,5.84,0,7.89,1.18.32,2.53.54,4.06.68,1.49.34.86,5.51.88,7.01.02,2.13-.05,1.9-.29,3.66-.15,1.08,1.01,2.87-.11,4.01l-30.67.2Z"/>
  <path class="cls-1" d="M32.49,126.8c-.03-1.62-4.01-1.34-5.09-1.03-.43.13-.74.46-1.02.79L.29,159.52c-1.88,4.19,5.97,3.4,8.57,3.17.95-.09,1.67-.93,2.14-.85,6.33,1.02,10.66.75,17.13.54,1.2-.04,3.33.99,4.4-.35l-.04-35.22ZM10.45,158.42c-1.06.9-4.95.97-4.99-.04-.02-.52,5.47-7.28,6.3-8.35,2.02-2.59,4.5-5.03,5.86-8.12.44-.52.89-1.21,1.35-1.8,2.14-2.13,1.44.28.45,1.8-1.64,3.96-4.4,9.12-6.67,12.94-.4.68-1.95,3.27-2.3,3.57ZM20.35,158.4c-.47.34-3.97.31-4.77.2-.62-.09-.77.25-.68-.68l7.78-16.58c.08-.44.62-.57.79-.77.31-.37.36-1.01.9-.9-.63,3.11-1.14,6.34-1.8,9.47-.3,1.44-1.56,8.8-2.23,9.27ZM29.33,157.92c0,1.04-4.1.61-4.95.68.6-4.1,1.11-8.69,1.9-12.75.6-3.03,1.28-6.17,2.08-9.21.21-.79-.31-1.25.97-1.04v22.32Z"/>
  <path class="cls-1" d="M87.37,135.29c-.35.59-2.07,4.33-2.05,4.6.08,1.12,4.51,1.82,5.44,1.6.57-.14,2.04-5.2,3.22-5.01.83.13,5.86,5.27,6.8,6.31.93,1.03.45,2.25,2.45,2.56,1.17.19,1.56-.95,2.78-1.34,4.26-1.36,4.79,2.45,6.92,2.86l17.79.46c.62-23.44-31.42-32.18-43.34-12.04ZM105.93,139.89c-.29,1.57-1.79,1.38-2.96.7-.46-.27-6.39-6.17-6.48-6.62-.23-1.31,5.01-3.48,6.16-3.66.95-.15,2.84-.5,3.21.63.23.69.23,8.02.06,8.96ZM110.9,141.29c-3.06.87-1.58-5.39-1.81-6.3-.09-.36-.93-.25-.93-.52.03-.75,1.68-2.67.92-4.29,1.48-.77,8.43,1.85,8.96,2.76.23.4.05.91-.17,1.3-.6,1.1-5.95,6.76-6.97,7.04ZM124.66,145.1c-.43.6-7.37.57-8.62.45-1-.1-2.48-.23-2.46-1.61,0-.55,6.48-7.23,7.08-7.39.69-.19.8,0,1.26.41,1.02.89,3.52,7.04,2.74,8.14Z"/>
  <path class="cls-1" d="M102.32,152.29c.84.53,1.18.72.69,1.8-.53,1.15-7,6.47-6.99,7,1.34,1.46,8,4.62,9.47,3.63.38-.26-.07-8.02.43-9.27h3.16v9.47c1.88.25,8.68-2.11,8.98-3.9.21-1.25-6.21-5.52-5.82-7.37,4.52-1.85,5.92,2.6,9.22,4.51.65-.16,2.2-3.74,2.58-3.96.87-.51,4.48.17,5.77-.09-7.4,25.8-46.31,20.39-45.95-6.77.86.15,6.09,1.12,6.31,1.36.09.1-.37,1.54-.18,2.62.33,1.91,1.66,3.74,2.43,5.5.67,1.91,2.54,1.2,5.62-2.11,1.18-1.94,2.61-2.74,4.29-2.4Z"/>
  <path class="cls-1" d="M64.7,41.34c.35.11.66.73.68,1.13.26,8.55-.77,17.02-1.55,25.51-.66.96-10.93.19-12.82.37-.09-.68-.37-1.35-.44-2.03-.67-6.23-1.6-13.64-1.85-19.8-.04-.94-.3-5.18.67-5.18h15.32Z"/>
  <path class="cls-1" d="M209.45,51.61c-1.51,1.3-14.72.27-17.61.28-4.68.02-9.37.13-14.03.3-10.22-1.05-23.03,1.33-32.93,0-2.98-.4-3.15-6.09-.42-6.34.84-.08,2.3.51,3.6.48,13.84-.31,28.35-.93,42.34-.5,1.17.04,2.35.94,3.18.89,3.43-.19,6.57-1.17,10.8-.87,1.11.08,4.75.48,5.23,1.08.67.85.59,4.02-.15,4.67Z"/>
  <path class="cls-1" d="M60.6,151.44c-1.74-2.41-7.74-1.27-10.78-1.39-1.73-.06-5.22-1.05-6.65-.83-2.15.32-4.41,5.07-4.71,7.03-1.55,10.36,7.7,18.87,17.61,14.01,6.57-3.22,8.74-12.96,4.53-18.81ZM49.16,150.49c.04,2.56.76,6.69-2.48,3.16-1.78-1.93.65-2.92,2.48-3.16ZM46.9,157.7h-4.06c-.36-7.18,4.93-.85,4.06,0ZM42.85,159.95h4.06c.79.78-4.18,7.22-4.06,0ZM45.55,165.81c-.45-.62,2.75-3.87,3.6-3.15,1.09,4.12.28,4.9-3.6,3.15ZM57.26,154.09c.47,1.79,2.17,3.77-.66,4.09-5.39.61-.18-4.7.66-4.09ZM52.08,150.49c.32-.02,3.08,1.62,2.91,2.42-.04.19-2.72,2.51-2.91,2.52-.96.04-1.02-4.89,0-4.94ZM51.41,166.72v-4.06c.86-.87,7.17,4.41,0,4.06ZM57.01,163.55c-1.58-.2-4.42-3.24-2.15-3.98,3.43-1.12,4.46,1.73,2.15,3.98Z"/>
  <path class="cls-1" d="M111.44,148.57c1.17.69,23.63.42,27.18.54,4.09.14,10.78-.06,14.43.44,1.07.15,1.6.89,2.22.95.35.03,2.12-3.94,5.98-2.38,4.3,1.73,1.34,9.04-3.93,6.64-.87-.4-1.18-1.77-1.45-1.93-.74-.43-12.42-.02-14.57-.08-9.34-.24-19.08-1.46-28.38-1.29-2.48.05-2.66,2.52-5.36,2.17-2.36-.31-2.51-2.53-4.05-3.19l-24.16-6.48c-.75-.56-.38-2.07-.44-2.94,7.26,1.23,14.5,3.25,21.63,5.18,1,.27,3.4,1.47,3.9,1.5,1.43.08,2.3-2.73,6.18-.3.49.31.63,1.06.82,1.18Z"/>
  <path class="cls-1" d="M36.09,72.46c.53.4,2.16,10.95,2.25,12.4.5,7.86.28,20.33-1.95,27.83-.17.57-.09,1.51-.97,1.26s-2.91-8.8-2.95-10.17c-.07-3.25,1.89-7.38,1.85-11.26-.03-3.2-2.16-6.41-2.22-8.09-.07-1.82,1.81-9.55,2.74-11.2.24-.43.73-1.17,1.25-.77Z"/>
  <path class="cls-1" d="M197.84,138.31v-9.02c1.06-.2,6.45-.04,6.94-.41.6-.44-.33-5.38,2.28-5.45,2.04-.05,2.38,2.27,2.51,3.8.2,2.35.38,13.58-.11,15.26-.39,1.32-2.46,1.62-3.52,1-1.47-.87-.4-5.19-1.57-5.19h-6.53Z"/>
  <path class="cls-1" d="M134.31,68.18c-.32,1.03-6.08.94-6.56.25-.37-.53-.35-12.06.03-12.66.28-.44,1.28-.51,1.51-1.2.41-1.22-.71-5.06,2.32-3.55,1.55.77.15,3.57.95,4.25.27.23,1.75-.05,1.75.04,0,2.51.5,11.22,0,12.85Z"/>
  <path class="cls-1" d="M28.46,102.2c-1.29-.88-1.94-8.41-1.84-10.14.19-3.49,2.62-11.59,4.42-3.93.56,2.4.82,12.67-1.23,13.89-.33.2-1.08.37-1.34.18Z"/>
  <path class="cls-1" d="M77.07,72.03c.28,3.08,1.05,6.15,1.37,9.22.58,5.54.77,12.19.48,17.6-.11,2.05-1.32,14.82-2.34,15.48l-36.88-.39c.32-1.5.24-3.27.48-4.71.75-4.51,1.6-8.41,1.81-13.1s-.21-9.79-.9-14.47c-.47-3.22-1.06-6.42-1.39-9.66,4.18-.35,8.19.08,12.31.28.65.03,1.49-.41,2.34-.33,3.33.31,4.59.1,8.09.03,4.87-.1,9.77.09,14.64.05Z"/>
</svg>