<svg width="33" height="28" viewBox="0 0 33 28" fill="none" xmlns="http://www.w3.org/2000/svg">
<path d="M15.6798 2.7529C24.9894 2.11689 31.0377 12.3819 25.9619 20.1559C21.56 26.8994 11.6487 27.0008 7.12895 20.3273C2.29348 13.1878 7.02527 3.34371 15.6798 2.7529ZM16.4182 4.58923C16.5171 4.25719 15.7819 4.23225 15.5258 4.23848C14.7404 4.25719 13.6171 4.60481 12.9322 4.96023C12.8065 5.0257 12.6635 5.04753 12.5331 5.10053L12.5221 5.37644C12.7892 5.39359 13.1505 5.28447 13.3218 5.55259C13.3877 5.65703 13.2966 5.87839 13.5307 5.98283C12.918 6.20887 13.2401 7.46841 13.7742 7.36553C13.8308 7.35462 14.1465 6.93217 14.3005 6.81682C14.7749 6.4614 15.3169 6.33046 15.8463 6.12937L15.8369 5.87527L16.0521 5.94698C16.016 5.66483 16.3569 5.61962 16.4464 5.37177C16.4983 5.22835 16.4621 5.03194 16.5187 4.94308C16.5501 4.8932 17.7048 4.44425 16.4166 4.58767L16.4182 4.58923ZM5.89102 12.1621C6.27748 12.4926 6.17066 12.9743 6.43144 13.233C6.51784 13.3188 6.94829 13.5884 7.05983 13.6165C7.22007 13.6555 7.35203 13.5697 7.473 13.6227C7.50756 13.6383 8.04326 13.9782 8.09354 14.014C8.29462 14.1574 8.40773 14.9789 8.98742 14.6625C9.42258 15.2658 8.7722 15.4404 8.7125 15.7864C8.70622 15.8192 8.70779 16.4318 8.7125 16.4661C8.72507 16.5456 9.38017 17.8363 9.43201 17.9018C9.55769 18.0623 9.78391 18.1325 9.90016 18.2587C10.2473 18.636 10.139 20.0109 10.1452 20.558C10.1515 21.0366 10.1625 21.6539 10.2489 22.1278C10.3306 22.5768 10.6197 23.3344 11.1318 23.431C11.2324 23.4497 11.6298 23.4887 11.5481 23.3047C11.4272 23.1816 11.1648 22.9322 11.1491 22.7638C11.1334 22.5955 11.2968 22.4676 11.292 22.3398C11.2873 22.2276 11.1302 22.1418 11.1459 21.9891C11.1507 21.9517 11.2653 21.9563 11.2889 21.894C11.3313 21.7771 11.3675 21.378 11.4539 21.3203C11.6534 21.1863 12.1671 21.2736 11.7995 20.7342C12.1687 20.9493 12.3902 20.2946 12.5331 19.9969C12.6195 19.816 12.6368 19.5354 12.7326 19.4092C12.8677 19.2299 13.2102 19.2549 13.3453 19.0881C13.592 18.7856 13.5527 18.226 13.6501 17.8893C13.7742 17.4544 14.2848 17.2128 13.9847 16.6812C13.9596 16.6375 13.4961 16.3118 13.4396 16.2884C13.1222 16.1512 12.508 16.1029 12.321 15.7568C12.2205 15.5713 12.2456 15.3312 12.0555 15.1598C11.8796 15.0008 11.6031 15.0054 11.4036 14.8776C11.2732 14.7934 10.7893 14.2525 10.7453 14.2416C10.6558 14.2167 10.527 14.3086 10.4123 14.2915C9.97871 14.2229 9.44615 13.8051 9.27491 14.5191L8.69836 14.4178L8.59782 13.5884L8.12495 13.5214L8.26791 12.7358C7.86731 12.6266 7.74006 13.2486 7.37403 13.1691C7.04255 12.8075 7.21222 11.7506 7.74164 11.6773C7.87988 11.6586 8.01184 11.7599 8.14852 11.7397C8.2035 11.7319 8.1658 11.5962 8.3009 11.5853C8.44543 11.5744 8.59468 11.6149 8.72978 11.657L8.84446 12.2369C9.33932 12.2884 9.02984 11.6835 9.16966 11.3811C9.23564 11.2377 9.64252 11.046 9.78234 10.8449C10.0588 10.4443 10.2018 10.2089 10.5254 9.83163C10.582 9.7646 10.9621 9.58377 11.0391 9.58845L11.1868 9.73965L11.7995 9.44971C11.8199 9.22679 11.6062 9.22679 11.4382 9.23615L11.5167 8.92126L11.3675 8.80902L12.0885 8.73732L11.944 9.05688C12.1844 9.29538 12.8442 9.25174 12.629 8.81058C12.4326 8.40684 12.5818 8.50817 12.5158 8.28213C12.4923 8.20107 12.343 8.20107 12.2676 8.02492C12.1891 7.84098 12.1624 7.58065 12.1608 7.37956C11.9283 7.40606 11.8655 7.67262 11.5843 7.59312C11.8042 7.01635 11.2528 6.91502 10.8365 7.17535C10.5867 7.33124 10.7186 7.64924 10.5615 7.90177C10.494 8.00933 10.373 8.02804 10.3275 8.09819C10.2568 8.20575 10.3039 8.36631 10.1782 8.45049L10.1342 8.03116C9.93787 7.98907 9.27334 7.76771 9.27334 7.55883C9.32204 7.34527 9.94101 6.90255 10.1185 6.8932C10.2269 6.88696 10.3605 7.03973 10.4987 7.06311C10.6558 7.09117 10.8396 6.99141 11.0077 7.02103C11.0658 6.76693 10.6165 6.85423 10.5757 6.66561C10.9779 6.60637 11.1538 6.43022 11.3329 6.09507L11.7272 6.41463C11.7304 6.51596 11.2245 6.59078 11.2983 6.80435C11.5591 6.88852 11.6298 7.22368 11.9613 7.15041C12.3305 7.06935 12.2064 6.77473 12.2378 6.74043C12.2582 6.71861 12.6729 6.71549 12.7374 6.48478C12.3666 6.22134 12.1734 5.76927 11.6769 5.68042C11.4413 5.63833 10.4909 5.56039 10.5223 5.9158L10.7155 6.19016L10.5396 6.37878L10.3039 5.98751L10.4312 5.66483C10.2426 5.537 9.68651 5.70692 9.81533 5.9501C9.85775 6.0296 10.1641 6.2151 9.82004 6.2759C9.72578 6.29304 9.56083 6.19328 9.42258 6.30707L9.63467 6.04986L9.55612 5.74589C9.31733 5.59624 8.65909 6.11845 8.84603 6.37878C8.5067 6.33669 8.15952 6.83708 7.949 7.09897C7.1698 8.07325 5.86117 10.4318 5.75749 11.6492C5.73864 11.8753 5.84232 11.9672 5.88788 12.1637C5.85646 12.1372 5.68365 12.0062 5.67266 12.0202C5.67737 12.2556 5.57211 12.7888 5.96172 12.6266C5.94758 12.4723 5.92401 12.3118 5.88945 12.1637L5.89102 12.1621ZM27.3647 12.9415C27.5108 12.7934 27.0945 11.205 27.0081 10.9181C26.5871 9.51362 25.6697 7.81448 24.6721 6.73264C24.4144 6.45361 23.8677 5.84566 23.4577 5.94386C23.3195 6.05298 23.3352 6.23537 23.4106 6.37566C23.2472 6.37255 23.1357 6.30396 22.9629 6.31799C22.5418 6.35228 21.8035 6.55025 21.4296 6.7342C21.2144 6.45984 20.3472 6.14807 19.9906 6.15898C19.2019 6.18237 19.2428 6.50816 18.7998 6.91347C18.5814 7.113 18.3395 7.0522 18.2892 7.40762C18.2232 7.87683 18.3143 8.06857 18.7605 7.80357L18.7966 8.01869L18.5814 7.94698C18.5783 8.45049 18.2641 8.43958 17.9671 8.73264C17.9687 8.31487 17.5461 8.08728 17.5697 7.66171L17.2398 7.72718C17.1 7.83163 17.1408 7.95322 17.2099 8.08884C16.7669 8.07325 16.7559 8.36475 16.7763 8.73108C17.0214 8.78252 17.0984 8.53155 17.2806 8.44581L17.2099 8.87449L17.642 8.91035L17.2822 9.01791C17.2649 9.20185 17.4707 9.22991 17.499 9.41386C17.5964 10.0421 16.8517 9.4123 16.7182 9.85345C16.6067 10.2276 16.6727 10.6765 17.0623 10.8386C16.7166 11.0226 16.6931 11.4294 16.5218 11.6586C16.4307 11.7802 16.2673 11.8207 16.1652 11.9485C16.1275 11.9937 15.7945 12.6017 15.7835 12.6422C15.7065 12.9353 15.8385 13.1068 15.8385 13.339C15.8385 13.5214 15.7285 13.6851 15.7348 13.8846C15.7426 14.159 16.1322 14.781 16.3129 15.0117C16.4936 15.2424 16.6522 15.3858 16.9523 15.378C17.2759 15.3702 17.8069 15.1411 18.0378 15.1535C18.2326 15.1644 18.4934 15.4435 18.7636 15.4419C18.8563 15.7007 18.6741 15.908 18.7354 16.1808C18.8186 16.5518 19.2192 16.9945 19.2224 17.5635C19.2224 17.8799 18.949 18.053 19.0276 18.5362C19.1061 19.0195 19.5146 19.9049 19.6984 20.3725C19.7675 20.5503 19.6717 20.7981 19.8775 20.9135C20.6127 20.9524 21.0164 20.7217 21.3353 20.0701C21.3887 19.9626 21.6542 19.4341 21.6652 19.3967C21.7218 19.2065 21.6291 18.9961 21.7171 18.8043C21.7956 18.6329 22.2575 18.3694 22.314 18.1808C22.4413 17.7552 22.1742 17.3001 22.1789 16.9088C22.1868 16.2821 22.9047 15.9018 23.1812 15.3967C23.2802 15.2174 23.5253 14.5939 23.5551 14.4084C23.5787 14.265 23.541 14.3133 23.4467 14.3008C23.1341 14.2572 22.9157 14.4271 22.6204 14.4427L22.545 14.1605C23.0775 14.2104 24.383 13.4029 24.3233 12.8371L23.8426 12.3757C24.061 12.3601 24.2432 12.5175 24.4569 12.5222C24.6234 12.5253 24.804 12.4162 24.9439 12.4552C25.1041 12.5004 25.2659 12.8994 25.3947 13.0163C25.4764 13.0896 25.6115 13.0771 25.632 13.099C25.6665 13.1364 25.6351 13.4154 25.6618 13.5354C25.7561 13.961 25.8786 14.3835 26.0734 14.7747L26.364 14.7326V15.0896C26.8997 15.0927 26.5447 14.7217 26.5133 14.4785C26.4096 13.6898 26.5808 13.7521 27.0144 13.2689C27.0977 13.1769 27.1291 12.9961 27.1778 12.9618C27.2265 12.9275 27.3428 12.9618 27.3632 12.94L27.3647 12.9415ZM15.851 6.86514C16.1794 7.01167 16.5438 6.99452 16.7763 6.69679C16.5108 6.37722 16.1825 6.62976 15.84 6.58923L15.851 6.86358V6.86514ZM10.3605 13.0912C10.1547 12.901 9.79176 12.9743 9.64566 12.9119C9.42887 12.8199 9.13038 12.4131 8.81304 12.4458L8.55855 12.6266L9.27805 12.9478L9.13352 13.2315H9.42101L9.34875 13.0179C9.67551 12.9384 9.49642 13.1707 9.6111 13.2346C9.76034 13.3188 10.0824 13.272 10.2505 13.2299C10.3557 13.2034 10.3777 13.2814 10.3573 13.0896L10.3605 13.0912ZM22.955 18.0701C22.8545 18.1824 22.6392 18.2198 22.5733 18.4474C22.5261 18.611 22.6282 18.7155 22.6157 18.8386C22.5937 19.0616 22.3172 19.1925 22.5858 19.5869C23.0461 20.2634 23.4027 18.3227 23.4043 18.0467C23.4043 17.8893 23.3509 17.7677 23.2299 17.6648C23.0665 17.7521 23.0477 17.9657 22.955 18.0701Z" fill="#FF541C"/>
<path d="M19.7192 12.8932H19.9061C19.7773 13.0351 20.0915 13.3531 20.1967 13.3764C20.2831 13.3951 20.3711 13.3234 20.4371 13.3312C20.5879 13.3484 20.6146 13.5152 20.8361 13.325C20.9194 14.2167 20.1119 13.8098 19.5636 13.749L19.328 13.9345C19.2337 13.8472 18.6556 13.6134 18.6305 13.5744C18.5739 13.4871 18.6242 13.3406 18.5912 13.2439C18.4765 12.8979 17.38 13.3297 17.1113 13.325C17.1585 13.2065 17.3391 13.258 17.4554 13.1442C17.5402 13.0631 17.5433 12.9322 17.6062 12.862C17.8198 12.6204 18.0743 12.4926 18.3791 12.399C18.4985 12.5986 18.6572 12.8043 18.9101 12.834C18.9745 12.9181 18.4985 13.1411 18.8174 13.2626C19.0169 13.339 19.0813 12.9368 19.1583 12.7997L18.786 12.3414C19.1725 12.3928 19.3673 13.2829 19.5636 13.325C19.7192 13.3593 19.8323 13.0132 19.7176 12.8963L19.7192 12.8932Z" fill="#FF541C"/>
<path d="M19.5334 10.862C19.2789 10.848 19.2695 10.9899 19.1846 11.1738L18.5405 11.1691L18.5704 11.0475C18.8846 11.2315 18.9191 10.9774 19.0385 10.7841C19.0637 10.742 19.1564 10.742 19.1626 10.6999C19.1925 10.53 19.0401 10.438 19.0464 10.3492C19.0574 10.212 19.2867 10.0405 19.3779 9.93921L19.2192 10.4614L19.5318 10.8605L19.5334 10.862Z" fill="#FF541C"/>
<path d="M21.4205 15.4513C21.4268 15.4669 21.4912 15.4762 21.5147 15.523C21.5776 15.6524 21.6231 15.88 21.642 16.0296C21.1911 15.7163 21.0843 14.9914 20.8989 14.491C21.1346 14.7389 21.2697 15.1333 21.4205 15.4513Z" fill="#FF541C"/>
<path d="M22.2639 14.1855C22.3362 14.3616 22.5671 14.6313 22.7619 14.5534C22.5436 15.1457 22.3346 14.5331 22.1445 14.2728L22.2639 14.1855Z" fill="#FF541C"/>
</svg>
