<?xml version="1.0" encoding="UTF-8"?>
<svg id="Layer_1" data-name="Layer 1" xmlns="http://www.w3.org/2000/svg" viewBox="0 0 210.06 179.62">
  <defs>
    <style>
      .cls-1 {
        fill: #ff541c;
      }
    </style>
  </defs>
  <path class="cls-1" d="M99.81,17.66c59.26-4.08,97.76,61.77,65.45,111.64-28.02,43.26-91.11,43.91-119.88,1.1-30.78-45.8-.66-108.95,54.43-112.74ZM104.51,29.44c.63-2.13-4.05-2.29-5.68-2.25-5,.12-12.15,2.35-16.51,4.63-.8.42-1.71.56-2.54.9l-.07,1.77c1.7.11,4-.59,5.09,1.13.42.67-.16,2.09,1.33,2.76-3.9,1.45-1.85,9.53,1.55,8.87.36-.07,2.37-2.78,3.35-3.52,3.02-2.28,6.47-3.12,9.84-4.41l-.06-1.63,1.37.46c-.23-1.81,1.94-2.1,2.51-3.69.33-.92.1-2.18.46-2.75.2-.32,7.55-3.2-.65-2.28ZM37.5,78.02c2.46,2.12,1.78,5.21,3.44,6.87.55.55,3.29,2.28,4,2.46,1.02.25,1.86-.3,2.63.04.22.1,3.63,2.28,3.95,2.51,1.28.92,2,6.19,5.69,4.16,2.77,3.87-1.37,4.99-1.75,7.21-.04.21-.03,4.14,0,4.36.08.51,4.25,8.79,4.58,9.21.8,1.03,2.24,1.48,2.98,2.29,2.21,2.42,1.52,11.24,1.56,14.75.04,3.07.11,7.03.66,10.07.52,2.88,2.36,7.74,5.62,8.36.64.12,3.17.37,2.65-.81-.77-.79-2.44-2.39-2.54-3.47s.94-1.9.91-2.72c-.03-.72-1.03-1.27-.93-2.25.03-.24.76-.21.91-.61.27-.75.5-3.31,1.05-3.68,1.27-.86,4.54-.3,2.2-3.76,2.35,1.38,3.76-2.82,4.67-4.73.55-1.16.66-2.96,1.27-3.77.86-1.15,3.04-.99,3.9-2.06,1.57-1.94,1.32-5.53,1.94-7.69.79-2.79,4.04-4.34,2.13-7.75-.16-.28-3.11-2.37-3.47-2.52-2.02-.88-5.93-1.19-7.12-3.41-.64-1.19-.48-2.73-1.69-3.83-1.12-1.02-2.88-.99-4.15-1.81-.83-.54-3.91-4.01-4.19-4.08-.57-.16-1.39.43-2.12.32-2.76-.44-6.15-3.12-7.24,1.46l-3.67-.65-.64-5.32-3.01-.43.91-5.04c-2.55-.7-3.36,3.29-5.69,2.78-2.11-2.32-1.03-9.1,2.34-9.57.88-.12,1.72.53,2.59.4.35-.05.11-.92.97-.99.92-.07,1.87.19,2.73.46l.73,3.72c3.15.33,1.18-3.55,2.07-5.49.42-.92,3.01-2.15,3.9-3.44,1.76-2.57,2.67-4.08,4.73-6.5.36-.43,2.78-1.59,3.27-1.56l.94.97,3.9-1.86c.13-1.43-1.23-1.43-2.3-1.37l.5-2.02-.95-.72,4.59-.46-.92,2.05c1.53,1.53,5.73,1.25,4.36-1.58-1.25-2.59-.3-1.94-.72-3.39-.15-.52-1.1-.52-1.58-1.65-.5-1.18-.67-2.85-.68-4.14-1.48.17-1.88,1.88-3.67,1.37,1.4-3.7-2.11-4.35-4.76-2.68-1.59,1-.75,3.04-1.75,4.66-.43.69-1.2.81-1.49,1.26-.45.69-.15,1.72-.95,2.26l-.28-2.69c-1.25-.27-5.48-1.69-5.48-3.03.31-1.37,4.25-4.21,5.38-4.27.69-.04,1.54.94,2.42,1.09,1,.18,2.17-.46,3.24-.27.37-1.63-2.49-1.07-2.75-2.28,2.56-.38,3.68-1.51,4.82-3.66l2.51,2.05c.02.65-3.2,1.13-2.73,2.5,1.66.54,2.11,2.69,4.22,2.22,2.35-.52,1.56-2.41,1.76-2.63.13-.14,2.77-.16,3.18-1.64-2.36-1.69-3.59-4.59-6.75-5.16-1.5-.27-7.55-.77-7.35,1.51l1.23,1.76-1.12,1.21-1.5-2.51.81-2.07c-1.2-.82-4.74.27-3.92,1.83.27.51,2.22,1.7.03,2.09-.6.11-1.65-.53-2.53.2l1.35-1.65-.5-1.95c-1.52-.96-5.71,2.39-4.52,4.06-2.16-.27-4.37,2.94-5.71,4.62-4.96,6.25-13.29,21.38-13.95,29.19-.12,1.45.54,2.04.83,3.3-.2-.17-1.3-1.01-1.37-.92.03,1.51-.64,4.93,1.84,3.89-.09-.99-.24-2.02-.46-2.97ZM174.19,83.02c.93-.95-1.72-11.14-2.27-12.98-2.68-9.01-8.52-19.91-14.87-26.85-1.64-1.79-5.12-5.69-7.73-5.06-.88.7-.78,1.87-.3,2.77-1.04-.02-1.75-.46-2.85-.37-2.68.22-7.38,1.49-9.76,2.67-1.37-1.76-6.89-3.76-9.16-3.69-5.02.15-4.76,2.24-7.58,4.84-1.39,1.28-2.93.89-3.25,3.17-.42,3.01.16,4.24,3,2.54l.23,1.38-1.37-.46c-.02,3.23-2.02,3.16-3.91,5.04.01-2.68-2.68-4.14-2.53-6.87l-2.1.42c-.89.67-.63,1.45-.19,2.32-2.82-.1-2.89,1.77-2.76,4.12,1.56.33,2.05-1.28,3.21-1.83l-.45,2.75,2.75.23-2.29.69c-.11,1.18,1.2,1.36,1.38,2.54.62,4.03-4.12-.01-4.97,2.82-.71,2.4-.29,5.28,2.19,6.32-2.2,1.18-2.35,3.79-3.44,5.26-.58.78-1.62,1.04-2.27,1.86-.24.29-2.36,4.19-2.43,4.45-.49,1.88.35,2.98.35,4.47,0,1.17-.7,2.22-.66,3.5.05,1.76,2.53,5.75,3.68,7.23s2.16,2.4,4.07,2.35c2.06-.05,5.44-1.52,6.91-1.44,1.24.07,2.9,1.86,4.62,1.85.59,1.66-.57,2.99-.18,4.74.53,2.38,3.08,5.22,3.1,8.87,0,2.03-1.74,3.14-1.24,6.24s3.1,8.78,4.27,11.78c.44,1.14-.17,2.73,1.14,3.47,4.68.25,7.25-1.23,9.28-5.41.34-.69,2.03-4.08,2.1-4.32.36-1.22-.23-2.57.33-3.8.5-1.1,3.44-2.79,3.8-4,.81-2.73-.89-5.65-.86-8.16.05-4.02,4.62-6.46,6.38-9.7.63-1.15,2.19-5.15,2.38-6.34.15-.92-.09-.61-.69-.69-1.99-.28-3.38.81-5.26.91l-.48-1.81c3.39.32,11.7-4.86,11.32-8.49l-3.06-2.96c1.39-.1,2.55.91,3.91.94,1.06.02,2.21-.68,3.1-.43,1.02.29,2.05,2.85,2.87,3.6.52.47,1.38.39,1.51.53.22.24.02,2.03.19,2.8.6,2.73,1.38,5.44,2.62,7.95l1.85-.27v2.29c3.41.02,1.15-2.36.95-3.92-.66-5.06.43-4.66,3.19-7.76.53-.59.73-1.75,1.04-1.97s1.05,0,1.18-.14ZM100.9,44.04c2.09.94,4.41.83,5.89-1.08-1.69-2.05-3.78-.43-5.96-.69l.07,1.76ZM65.95,83.98c-1.31-1.22-3.62-.75-4.55-1.15-1.38-.59-3.28-3.2-5.3-2.99l-1.62,1.16,4.58,2.06-.92,1.82h1.83s-.46-1.37-.46-1.37c2.08-.51.94.98,1.67,1.39.95.54,3,.24,4.07-.03.67-.17.81.33.68-.9ZM146.12,115.92c-.64.72-2.01.96-2.43,2.42-.3,1.05.35,1.72.27,2.51-.14,1.43-1.9,2.27-.19,4.8,2.93,4.34,5.2-8.11,5.21-9.88,0-1.01-.34-1.79-1.11-2.45-1.04.56-1.16,1.93-1.75,2.6Z"/>
  <path class="cls-1" d="M125.52,82.71h1.19c-.82.91,1.18,2.95,1.85,3.1.55.12,1.11-.34,1.53-.29.96.11,1.13,1.18,2.54-.04.53,5.72-4.61,3.11-8.1,2.72l-1.5,1.19c-.6-.56-4.28-2.06-4.44-2.31-.36-.56-.04-1.5-.25-2.12-.73-2.22-7.71.55-9.42.52.3-.76,1.45-.43,2.19-1.16.54-.52.56-1.36.96-1.81,1.36-1.55,2.98-2.37,4.92-2.97.76,1.28,1.77,2.6,3.38,2.79.41.54-2.62,1.97-.59,2.75,1.27.49,1.68-2.09,2.17-2.97l-2.37-2.94c2.46.33,3.7,6.04,4.95,6.31.99.22,1.71-2,.98-2.75Z"/>
  <path class="cls-1" d="M124.34,69.68c-1.62-.09-1.68.82-2.22,2l-4.1-.03.19-.78c2,1.18,2.22-.45,2.98-1.69.16-.27.75-.27.79-.54.19-1.09-.78-1.68-.74-2.25.07-.88,1.53-1.98,2.11-2.63l-1.01,3.35,1.99,2.56Z"/>
  <path class="cls-1" d="M136.35,99.12c.04.1.45.16.6.46.4.83.69,2.29.81,3.25-2.87-2.01-3.55-6.66-4.73-9.87,1.5,1.59,2.36,4.12,3.32,6.16Z"/>
  <path class="cls-1" d="M141.72,91c.46,1.13,1.93,2.86,3.17,2.36-1.39,3.8-2.72-.13-3.93-1.8l.76-.56Z"/>
</svg>