<?xml version="1.0" encoding="UTF-8"?>
<svg id="Layer_1" data-name="Layer 1" xmlns="http://www.w3.org/2000/svg" viewBox="0 0 210.06 179.62">
  <defs>
    <style>
      .cls-1 {
        fill: #ff541c;
      }
    </style>
  </defs>
  <g>
    <path class="cls-1" d="M92.05,46.88l-7.04,5c-3.09,4.29-5.42,9.05-8.23,13.51-2.61,4.15-9.35,9.79-4.16,14.69s14.98,2.64,20.3-1.51c2.72-2.12,7.17-8.59,9.17-9.63.86-.44,9.28-2.57,9.96-2.43,1.48.31,5.79,3.9,7.32,5.05,11.9,8.97,27.48,20.57,38.23,30.52,4.09,3.79,8.72,9.02,2.99,14.11-7.75,6.88-16.77-9.69-24.41-10.58l-.35,2.91,14.06,11.31c3.15,6.03-.78,12.96-8.02,11.46-3.54-.73-14.13-10.98-15.99-10.43-1.1.32-1.19,2.56-.6,3.52,1.1,1.79,9.55,5.82,10.57,8.23,2.11,4.99-2.42,9.84-7.56,9.36-4.27-.4-12-9.07-14.5-7.33s3.05,4.36,4.14,5.3c6.17,5.32,2.04,10.21-4.99,9.69-4.32-.32-7.05-3.27-10.85-4.75,2.36-6.4.6-10.54-5.25-13.8,3.06-7.25-1.33-14.71-9.5-14.34,2.03-6.49-5.03-12.24-11.29-11.61-4.02.4-6.89,3.12-8.99,6.32-3.99-6.59-10.31-8.16-16.97-4.16l-15.62-13.21,22.96-42.46c3.12.86,5.57,2.42,9,2.32,8.43-.26,16.99-9.21,25.61-7.06Z"/>
    <path class="cls-1" d="M153.75,47.5l21.15,44.3c-4.67,2.52-8.51,5.07-12.07,9.05l-49.59-39.05-13.77,3.34c-4.38,4.84-8.06,12.64-15.35,13.44-2.62.29-10.54.27-8.67-3.95,3.3-4.57,6.49-9.26,9.44-14.07,1.23-2,2.01-5.25,3.68-6.89,1.94-1.91,8.36-3.33,11.25-4.62,6.19-2.76,9.77-6.48,17.07-5.55,5.53.71,11.86,3.78,17.36,4.97,7.09,1.54,12.59,1.46,19.49-.98Z"/>
    <path class="cls-1" d="M185.62,104.93l-30.05-63.65c.01-1.05.84-1.44,1.56-1.95,5.38-3.82,14.28-6.18,20.01-10l31.93,64.26-.94,1.36c-3.22,1.07-20.58,11.2-22.5,9.98ZM195.37,88.14c-2.77-3.29-9.28-1.35-8.68,4.25.92,8.55,14.26,2.37,8.68-4.25Z"/>
    <path class="cls-1" d="M56.07,42.87l-.54,3.06-31.36,57.36-1.2.52L1.44,91.82l-.44-1.09L33.83,31.29l2.32.05,19.93,11.53ZM17.79,85.75c-5.7,1.28-4.2,11.26,2.68,9.75,5.75-1.27,5.08-11.49-2.68-9.75Z"/>
    <path class="cls-1" d="M81.87,111.06c1.79,1.64,1.63,4.55.91,6.7-.57,1.7-9.88,13.68-11.6,15.43-5.63,5.74-12.85,2.58-11.8-5.32,4.02-4.78,8.01-11.55,12.36-15.84,2.62-2.59,7.2-3.64,10.12-.97Z"/>
    <path class="cls-1" d="M86.59,120.98c4.82-1.09,8.38,2.82,6.95,7.54-.25.84-9.4,13.12-10.28,13.8-4.68,3.63-10.32.75-10.37-5.04,2.9-2.99,10.28-15.52,13.7-16.3Z"/>
    <path class="cls-1" d="M56.06,109.24c4.73-.38,8.83,3.7,6.51,8.31-2.44,4.86-8.42,9.7-13.18,4.51-4.61-5.02.94-12.37,6.67-12.82Z"/>
  </g>
  <path class="cls-1" d="M101.46,149.04c-4.98.72-13.81,3.77-15.04-3.48-.35-2.05,4.62-9.02,6.24-9.7,3.47-1.47,6.68,1.08,6.5,4.67-.07,1.46-1.07,2.39-1.22,3.58-.37,2.99,2.46,2.59,3.53,4.93Z"/>
</svg>