<?xml version="1.0" encoding="UTF-8"?>
<svg id="Layer_1" data-name="Layer 1" xmlns="http://www.w3.org/2000/svg" viewBox="0 0 210.06 179.62">
  <defs>
    <style>
      .cls-1 {
        fill: #ff541c;
      }
    </style>
  </defs>
  <path class="cls-1" d="M178.76,15.76c-4.4,2.9-7.72,5.81-10.44,10.41-6.57,11.08-6.95,26.58-7.64,39.14-1.03,18.8-.87,37.7-1.7,56.48-.63,14.33-1.93,49.85-17.12,56.64-9.84,4.4-19.46-4.73-20.77-14.27,8.75.45,19.2,5.57,24.22-4.62,5.22-10.59-1.81-17.28-11.86-18.93-11.5-1.89-24.06-2.04-35.73-3.43-14.82-1.77-29.31-4.89-43.78-8.43l-1.03-.69,1.74-16.3c.72-1.78,5.24-3.49,5.4-5.16.25-2.58-4.52-5.29-4.98-6.81-.86-2.9.31-9.74.35-12.97.17-11.51.07-23.11.83-34.58.07-1.1.34-4.02.6-4.88.44-1.44,2.39-1.93,2.38-3.56,0-1.38-1.78-2.77-2.04-4.13,3.04-13.41,4.58-34.99,20.6-39.21,4.98-1.31,14.38.97,19.81,1.91,10.88,1.89,21.72,4.31,32.62,6.12,16.12,2.67,32.38,4.7,48.52,7.28ZM73.4,33.95c-2.18.37-3.01,3.06-1.59,4.8.97,1.18,9.21,2.44,11.22,2.67,3.02.34,9.16,1.25,7.65-3.86-.65-2.2-5.98-1.72-8.06-2.04s-7.66-1.83-9.21-1.57ZM94.86,38.61c-.76.17-1.33.6-1.68,1.29-.58,1.22.07,2.92,1.22,3.63,2.18,1.35,10.18.98,13.37,1.37,10.56,1.27,21.92,5.85,32.47,6.27,1.97.08,5.62.16,6.09-2.33.94-4.99-5.54-3.28-8.57-3.62-12.68-1.42-24.67-6.28-37.94-6.69-1.41-.04-3.67-.21-4.96.09ZM72.13,53.78c-2.5.36-3.5,3.93-.59,5.49,4.99,2.67,19.74,2.48,26.13,3.35,6.96.95,14.26,3.9,21.11,4.15,2.3.08,4.82.44,5.18-2.43.53-4.22-5.08-3.09-7.66-3.52-5.56-.92-10.95-2.76-16.53-3.68-6.65-1.09-13.18-.95-19.71-1.76-1.79-.22-6.85-1.76-7.92-1.6ZM131.08,63.08c-3.01.56-3.37,4.52-1.05,5.48.89.37,9,1.57,10.23,1.6,4.17.08,4.82-4.35,1.77-5.6-2.03-.83-8.84-1.87-10.95-1.48ZM69.85,77.6c1.04,1.39,8.98,2.5,11.03,2.65,2.35.17,5.2.08,7.59.02,1.39-.03,2.7-.72,4.18-.43.9.17,2.83,2.34,4.15,3.02,3.84,2,11.67,1.14,16.44,1.66,7.6.84,15.94,4.2,23.21,4.58,2.52.13,6.94.21,7.25-3.22.38-4.15-5.55-2.54-8.04-2.73-7.62-.58-15.96-4.02-24.05-4.58-3.29-.23-7.27.42-10.42-.11-2.61-.44-3.8-2.68-5.91-3.78-3.08-1.6-8.42.3-12.31.1-3.04-.16-8.37-1.93-10.89-1.7-2.05.19-3.42,2.9-2.22,4.51ZM71.52,92.17c-3.2,6.41,7.19,5.23,11.33,5.93,9.68,1.64,18.91,4.7,28.81,5.72,1.91.2,6.53,1.23,7.23-1.08s-.08-3.76-2.33-4.25c-4.25-.92-9.58-1.06-14.1-1.9-7.81-1.46-15.41-3.97-23.33-4.88-1.96-.23-6.24-1-7.62.47ZM125.56,99.37c-3.22.23-3.82,4.58-.8,5.66,1.39.5,6.22,1.12,7.95,1.31,2.75.31,9.87,1.71,10.61-1.94.96-4.75-5.06-3.21-7.71-3.49-2.81-.3-7.53-1.72-10.06-1.54ZM101.61,113.67c-1.2-1.12-8.57-1.16-10.93-1.5-3.86-.55-14.73-3.97-17.61-3.06s-2.82,5.04.41,5.53c8.08.38,18.36,5.17,26.32,3.95,2.41-.37,3.51-3.34,1.81-4.93ZM107.08,113.22c-2.22.47-3.02,3.01-1.58,4.78,1.15,1.42,4.64,1.2,6.41,1.59,6.57,1.45,14.15,4.04,20.76,4.51,2.72.19,12.11,1.02,10-4.09-.95-2.31-4.95-1.18-7.05-1.39-7.52-.76-14.65-3.12-22.03-4.5-1.68-.31-4.99-1.21-6.51-.9Z"/>
  <path class="cls-1" d="M123.19,178.91l-103.98-20.44c-9.87-4.89-12.41-17.23-8.42-26.99.38-.94,2.8-5.55,3.38-5.89,1.73-1.04,9.41.84,11.71,1.34,12.15,2.66,24.13,6.43,36.28,9.2,19.3,4.41,38.83,7.43,58.68,8.27l.48.79c-9.29,8.92-6.68,25.18,1.89,33.72Z"/>
  <path class="cls-1" d="M167.81,44.85c.03-11.53,11.17-31.51,24.94-25.6,10.82,4.64,9.73,21.05,4.54,29.64l-29.47-4.03Z"/>
  <path class="cls-1" d="M129.39,146.13c2.99-.52,10.3.62,11.58,3.8,1.52,3.78-.78,11.28-5.77,10.87l-14.37-2.1c-.21-4.82,3.49-11.69,8.55-12.57Z"/>
</svg>