<svg width="33" height="28" viewBox="0 0 33 28" fill="none" xmlns="http://www.w3.org/2000/svg">
<g clip-path="url(#clip0_492_4645)">
<path d="M24.0703 0.00465512C24.097 0.20107 23.9651 0.332013 23.863 0.473868C23.2676 1.2907 22.5198 2.02492 21.9228 2.84487C21.7563 3.17535 22.0124 4.14807 22.2527 4.42866C23.6163 5.69289 25.3978 6.72328 26.7567 7.95633C26.8274 8.02024 27.1149 8.24784 27.0395 8.35072C26.2336 8.58922 25.569 9.17847 24.848 9.55882C23.5409 10.2463 22.0799 10.7077 20.8985 11.6087L8.98579 27.3936C6.85554 29.1364 4.17388 26.7981 5.55163 24.4676C9.29527 19.5697 13.7427 15.007 17.4895 10.1387C18.2671 9.12858 18.5389 8.41931 18.619 7.12235C18.7416 5.12858 17.7173 3.749 19.26 1.95321C20.3565 0.678077 22.3972 -0.0717284 24.0703 0.00465512ZM23.321 7.42632L21.384 5.9953C21.241 5.9953 20.9001 6.4271 20.7838 6.56584C20.6362 6.74199 19.8098 7.79265 19.8318 7.90489L22.0265 9.63053C22.1113 9.63053 22.6879 8.91814 22.7853 8.78875C22.8827 8.65937 23.4498 7.8628 23.4734 7.79265C23.5158 7.66639 23.4168 7.51985 23.321 7.42788V7.42632ZM6.44237 24.834C6.1266 25.1676 6.06219 26.0171 6.30098 26.3959C7.08333 27.6368 8.92295 26.848 8.74857 25.4824C8.61975 24.4707 7.09433 24.1465 6.44237 24.834Z" fill="#FF541C"/>
<path d="M27.6005 2.70772C27.987 4.28372 27.976 6.2463 26.7601 7.45909L25.3933 6.44584L25.2739 5.53703C25.2771 5.44662 25.3273 5.37803 25.365 5.30164C25.5159 5.00546 26.9847 3.09588 27.2361 2.86361C27.3523 2.75605 27.4136 2.67343 27.599 2.70616L27.6005 2.70772Z" fill="#FF541C"/>
<path d="M22.7873 7.47932L22.6239 8.08104L22.7904 8.24316C22.8973 8.78564 22.2296 8.70458 22.1573 8.76381C22.1196 8.79499 22.1511 9.00855 22.0238 9.06935L21.8227 9.02882L21.9578 8.47231C21.6169 7.97971 21.5886 8.49881 21.3436 8.55649C21.0137 8.63287 21.3294 7.97504 21.2619 7.87995C20.965 7.76459 20.888 7.87995 20.7419 8.11689L20.5439 7.99374C20.8063 7.54324 20.3413 7.1925 20.8189 6.83708C20.9068 6.77161 21.0121 6.84331 21.0985 6.80278C21.2226 6.74355 21.6389 6.14963 21.5698 6.70769C21.5337 6.9992 21.2996 7.04285 21.7065 7.32032C22.1463 6.79031 22.3851 6.85111 22.0694 7.52297C22.3066 8.1091 22.4433 7.54168 22.7904 7.48244L22.7873 7.47932Z" fill="#FF541C"/>
</g>
<defs>
<clipPath id="clip0_492_4645">
<rect width="33" height="28" fill="white"/>
</clipPath>
</defs>
</svg>
