<?xml version="1.0" encoding="UTF-8"?>
<svg id="Layer_1" data-name="Layer 1" xmlns="http://www.w3.org/2000/svg" viewBox="0 0 210.06 179.62">
  <defs>
    <style>
      .cls-1 {
        fill: #ff541c;
      }
    </style>
  </defs>
  <path class="cls-1" d="M146.24,87.17c.44.68.02,16.08,0,16.13,0,.04.04.69.03.7,0,0,.31,2.9.4,4.16.26,3.91.29,9.29.05,13.2-.06,1.05-.3,3.97-.54,4.76-.53,1.71-3.19,3.08-4.92,3.02l-72.85-.2c-.43-.02-.6,0-1.3-.19-1.3-.7-2.35-1.27-3.02-2.67l-.22-60c.36-2.52,1.88-3.75,4.34-3.99,5.82-.56,11.98.05,17.78.04,19.14-.04,38.29-.08,57.43.06,1.38.31,2.69,2.2,2.89,3.54-.52,2.96.13,20.09-.07,20.92"/>
  <path class="cls-1" d="M110.85,51.03,109.94,51.03c-.11.13-36.23.22-37.57.11-3.7-.73-5.55-3.37-5.87-7-1.02-11.83.79-25.12.02-37.11.42-4.19,3.51-6.99,7.73-7.03l63.78.18c2.54.71,4.53,2.4,5.25,4.97.42,1.49.33,15.19.31,15.24-.04.07,0,.18,0,.22l-.03.87c-.86,7.27,1.2,16.79.1,23.76-.4,2.54-2.42,5.02-4.97,5.63M86.11,13.35c-7.15.56-10.37,10.15-4.65,14.69,7.64,6.07,17.25-3.54,11.7-11.33-1.42-1.99-4.61-3.55-7.05-3.35ZM122.03,13.74c-8.39,1.33-8.62,13.82-.59,15.93,12.52,3.29,13.98-18.05.59-15.93ZM118.6,39.66c1.08-1.44-.31-3.61-1.96-3.71-1.48-.09-5.27,1.89-7.29,2.21-2.71.44-6.12.43-8.81-.07-1.91-.36-5.97-2.23-7.32-2.1-1.78.17-2.79,2.29-1.62,3.67,1.3,1.55,9.96,3.42,12.16,3.53,2.91.14,13.1-1.23,14.84-3.53Z"/>
  <path class="cls-1" d="M99.81,179.49h-31.02v-8.14c0-2.28,4.2-6.78,6.43-7.57,2.67-.94,14.77-.92,17.56-.17,6.84,1.83,8.37,9.75,7.02,15.88Z"/>
  <path class="cls-1" d="M111.17,169.47c1.82-3.89,4.53-5.96,8.86-6.28s13.78-.59,17.2,1.74c1.4.95,4.19,4.81,4.19,6.41v8.14h-31.02v-8.14"/>
  <path class="cls-1" d="M166.38,115.88c-3.12-.48-6.36-.64-9.45,0l-.02-42.23c.05-3.74,3.75-4.74,6.85-3.79.66.2,2.63,2.13,2.63,2.67v43.35Z"/>
  <path class="cls-1" d="M43.82,72.9c.64-3.58,6.29-4.35,8.57-1.95,1.67,1.76.57,5.32.91,7.61l-1.16.4,1.13.19v3.41s-.75-.19-.75-.19l.76.76v32.75c-3.02-.93-6.37-.15-9.46,0v-42.97Z"/>
  <path class="cls-1" d="M44.58,142.76c-6.58-1.04-7.48-6.59-7.2-12.32.3-6.1,2.12-10.85,8.91-11.53,9.59-.95,13.94,2.68,14.2,12.28.15,5.5-1,10.52-7.2,11.57-.44-.49.07-3.87.07-4.68,0-.75-.07-1.53-.09-2.31-.08-4.13.92-11.28-6.05-9.12-1.23.38-2.63,2.65-2.63,3.81v12.31Z"/>
  <path class="cls-1" d="M165.62,142.76v-12.68c0-.23-.87-1.96-1.13-2.28-1.59-2.01-5.26-1.81-6.83.11-.21.26-.71,2.14-.71,2.29,0,.25-.06,1.03-.02,1.76.19,3.58-.18,7.23-.03,10.81-2.48-.35-5.25-2.21-6.24-4.54-.83-1.92-.84-9.99-.47-12.22,1.53-9.16,19.24-10.09,21.87-.87.49,1.72.85,7.22.73,9.1-.27,4.07-2.96,7.95-7.18,8.52Z"/>
  <path class="cls-1" d="M126.84,159.82l-6.98-.02v-4.55s0-.18,0-.18l-.03-.74v-10.99s.03-.58.03-.58c0-.15,0-.36,0-.65-.03-2.52.46-7.22,0-9.96h12.1l-.04,11.93-.05.7c-.03.34-.01.41-.01.7,0,.36-.51,12,.1,14.31h-4.16"/>
  <path class="cls-1" d="M90.35,132.16v27.64h-11.73c.03-2.46-.03-4.94-.02-7.4,0-1.15,0-1.84,0-2.99-.02-5.62.07-11.25.02-16.87l11.73-.38Z"/>
  <path class="cls-1" d="M63.11,15.54v22.72c-4.36.43-6.5-1.07-6.82-5.47-.21-2.79-.35-12.88.58-14.97,1.33-3,3.48-2.23,6.24-2.27Z"/>
  <path class="cls-1" d="M147.19,25.68c-.58-.82.22-8.83-.1-10.52,3.18-.4,6.13.55,6.72,4.07.45,2.66.43,11.91.06,14.64-.51,3.73-3.43,4.54-6.78,4.39l-.02-2.45c.06-.25.07-.48,0-1.17-.11-.38-.09-7.45.02-7.88"/>
  <rect class="cls-1" x="93.38" y="54.54" width="23.07" height="4.16"/>
  <rect class="cls-1" x="149.74" y="70.44" width="4.16" height="15.9"/>
  <rect class="cls-1" x="56.68" y="70.44" width="3.78" height="15.9"/>
  <path class="cls-1" d="M85.32,18.27c6.5-1.51,6.5,7.73.78,7.04-3.77-.45-3.89-6.32-.78-7.04Z"/>
  <path class="cls-1" d="M122.39,18.27c5.48-1.25,6.43,5.65,2.4,6.94-4.85,1.56-6.33-6.05-2.4-6.94Z"/>
</svg>