<?xml version="1.0" encoding="UTF-8"?>
<svg id="Layer_1" data-name="Layer 1" xmlns="http://www.w3.org/2000/svg" viewBox="0 0 210.06 179.62">
  <defs>
    <style>
      .cls-1 {
        fill: #ff541c;
      }
    </style>
  </defs>
  <path class="cls-1" d="M96.53.31c94.91-6.94,135.33,115.42,55.98,165.37C89.04,205.64,8.11,154.06,15.87,79.96,20.17,38.93,55.02,3.35,96.53.31ZM100.78,19.46c-54.76,3.16-84.97,66.12-52.96,111.04,29.29,41.1,91.25,38.49,117.4-4.42,29.7-48.72-8.27-109.86-64.44-106.62Z"/>
  <path class="cls-1" d="M100.78,24.14c49.56-3.34,85.29,48.34,63.78,93.62-18.68,39.32-70.56,50-103.22,20.91C18.02,100.1,42.94,28.04,100.78,24.14ZM100.02,33.37c-16.98,1.45-33.08,10.71-42.42,24.97-.77,1.18-5.05,8.25-4.33,9.06l33.57,11.08-2.98,9.78-34.42-11.06c-3.44,19.57,1.87,41.26,17.64,53.95l21.24-27.56c2.37,2.58,5.01,4.85,8.29,6.16-6.12,8.13-12.88,15.86-18.87,24.07-.54.74-2.72,3.48-2.32,4.17,18.26,10.96,41.13,10.84,59.43.03l-.05-.97-21.18-27.29c3.06-1.68,5.57-3.52,7.86-6.17l22.04,27.61c13.01-11.74,19.18-28.66,18.14-46.15-.1-1.63-.5-5.75-.95-7.13-.16-.48-.42-.75-.96-.71l-33.82,11.05c.2-3.49-1.45-6.75-2.98-9.78l33.28-10.72c1.58-.81-.65-4.04-1.34-5.31-8.92-16.52-26.33-27.74-45.13-29.07l.42,35.73c-3.48-.55-6.72-.55-10.2,0v-35.73Z"/>
  <path class="cls-1" d="M102.04,73.04c24.14-3.29,26.81,31.79,5.37,34.3-23.2,2.72-25.76-31.53-5.37-34.3ZM104.18,81.12c-13.52,1.48-7.64,23,4.9,16.84,8.62-4.24,4.75-17.9-4.9-16.84Z"/>
</svg>