<svg width="33" height="28" viewBox="0 0 33 28" fill="none" xmlns="http://www.w3.org/2000/svg">
<path d="M21.9589 4.42401V25.908H11.0391V4.42401H21.9589ZM13.0232 7.0834C9.40524 11.6633 16.195 17.1115 19.9308 12.7295C23.7781 8.21357 16.7009 2.42869 13.0232 7.0834ZM13.5354 14.8184V24.1699L13.6516 24.2853H19.3448L19.4611 24.1699V14.8184C19.4611 14.4739 18.4855 15.0179 18.3708 15.0522C17.8603 15.205 17.3136 15.3157 16.781 15.3313L16.6647 15.4482V19.9096C16.9915 20.1263 17.4188 20.2027 17.6686 20.5363C18.619 21.8083 17.1973 23.4575 15.7928 22.7046C14.5581 22.0421 14.9162 20.2292 16.2673 19.9984L16.3333 19.9096L16.327 15.5308C16.2029 15.2112 15.8635 15.364 15.609 15.3141C15.3797 15.2689 15.1472 15.2066 14.921 15.1458C14.646 15.0709 13.8668 14.689 13.7302 14.6999C13.6579 14.7062 13.5542 14.7592 13.5338 14.82L13.5354 14.8184Z" fill="#FF541C"/>
<path d="M21.5696 3.10992H23.5192V3.80517H9.48096V3.10992H11.3913C11.5766 2.84648 11.5861 2.50197 11.729 2.20735C12.4957 0.62356 15.1616 2.16216e-05 16.7766 0.0919936C18.6822 0.202672 21.2036 0.97586 21.5696 3.10992Z" fill="#FF541C"/>
<path d="M23.2066 26.6423H9.79199V27.9174H23.2066V26.6423Z" fill="#FF541C"/>
<path d="M16.8894 8.13253C16.8187 8.13565 16.7103 8.13253 16.6569 8.16994C16.5438 8.25256 16.5453 9.29075 16.5815 9.48249C16.6098 9.62746 17.1093 10.2791 16.4652 10.2229C15.8808 10.1731 16.393 9.62123 16.4212 9.48405C16.4998 9.09278 16.3238 8.65318 16.3348 8.2588L16.0332 8.09512L16.4605 7.28296L16.8894 8.13253Z" fill="#FF541C"/>
<path d="M16.6553 6.5877H16.3442V5.81451L16.5815 5.84881L16.6443 5.94234L16.6553 6.5877Z" fill="#FF541C"/>
<path d="M16.6553 13.1551H16.3442V13.8519H16.6553V13.1551Z" fill="#FF541C"/>
<path d="M13.146 9.7568L13.1115 9.99219L13.0172 10.053C12.0982 10.1387 12.3888 9.61962 13.146 9.7568Z" fill="#FF541C"/>
<path d="M20.5562 9.75684V9.98599C20.3017 10.053 20.1085 10.053 19.854 9.98599V9.75684H20.5562Z" fill="#FF541C"/>
</svg>
