<?xml version="1.0" encoding="UTF-8"?>
<svg id="Layer_1" data-name="Layer 1" xmlns="http://www.w3.org/2000/svg" viewBox="0 0 210.06 179.62">
  <defs>
    <style>
      .cls-1 {
        fill: #ff541c;
      }
    </style>
  </defs>
  <path class="cls-1" d="M68.5,55.04c26.51-27.49,74.52-15.82,84.77,21.04,11.86,42.66-32.95,78.1-71.97,57.85-29.48-15.29-35.9-54.94-12.8-78.89Z"/>
  <path class="cls-1" d="M161.31,82.55c0-.16-1.02-1.19.15-.94,11.97,2.56,23.76,6.14,35.93,7.8l-36.08,8.62c-.21-5.11.29-10.4,0-15.49Z"/>
  <polygon class="cls-1" points="48.75 98.04 12.67 89.42 48.36 81.57 48.75 98.04"/>
  <polygon class="cls-1" points="169.54 154.12 138.96 134.71 150.52 123.54 169.54 154.12"/>
  <polygon class="cls-1" points="40.13 154.12 58.56 123.53 70.71 134.71 40.13 154.12"/>
  <polygon class="cls-1" points="169.54 25.49 150.14 56.08 138.96 44.9 169.54 25.49"/>
  <polygon class="cls-1" points="40.52 25.89 70.71 44.9 59.53 56.08 40.52 25.89"/>
  <polygon class="cls-1" points="55.81 61.18 49.74 75.69 19.73 54.52 55.81 61.18"/>
  <polygon class="cls-1" points="90.72 35.29 75.82 41.18 70.33 6.28 90.72 35.29"/>
  <polygon class="cls-1" points="189.93 54.52 159.55 75.29 153.86 61.18 189.93 54.52"/>
  <path class="cls-1" d="M133.85,41.18c-4.41-1.81-8.91-3.49-13.32-5.31-.35-.14-1.84-.48-1.57-1.15l19.99-27.66-5.1,34.12Z"/>
  <polygon class="cls-1" points="190.32 124.72 153.86 117.86 159.93 103.93 190.32 124.72"/>
  <polygon class="cls-1" points="55.81 118.43 19.73 125.1 49.74 103.93 55.81 118.43"/>
  <polygon class="cls-1" points="133.84 138.44 138.95 172.56 118.99 144.86 119.62 144 133.84 138.44"/>
  <polygon class="cls-1" points="90.72 144.33 70.72 172.56 75.82 138.43 90.72 144.33"/>
  <polygon class="cls-1" points="112.68 145.89 105.03 179.62 96.99 145.89 112.68 145.89"/>
  <path class="cls-1" d="M112.67,34.12c-5.15-1.02-10.48-.04-15.68,0L104.45,0l8.23,34.12Z"/>
</svg>