<?xml version="1.0" encoding="UTF-8"?>
<svg id="Layer_1" data-name="Layer 1" xmlns="http://www.w3.org/2000/svg" viewBox="0 0 210.06 179.62">
  <defs>
    <style>
      .cls-1 {
        fill: #ff541c;
      }
    </style>
  </defs>
  <path class="cls-1" d="M99.19,0c17.21-.87,35.23,2.43,51.07,9.05,2.69,1.12,10.36,4.02,10.74,6.89-1,20.1,3.17,40.73-3.35,60.17-6.11,18.23-21.71,31.92-37.7,41.63-2.76,1.68-12.06,7.24-14.74,7.33-3.77.12-18.39-9.23-22.12-11.82-20.38-14.16-33.11-31.17-34.5-56.76-.58-10.75-.73-26.78-.02-37.45.1-1.52.52-3.08.68-4.61C64.31,5.76,81.8.88,99.19,0ZM153.42,18.89c-22.71-10.87-47.48-14-72.13-8.58-8.55,1.88-16.77,4.96-24.69,8.58.73,20.22-3.14,41.69,5.58,60.61,6.19,13.42,21.04,25.65,33.72,32.83,1.77,1,7.27,4.21,8.92,4.33,1.5.1,10.61-5.27,12.49-6.42,13.27-8.15,26.78-19.74,32.22-34.77,6.46-17.85,3.2-37.91,3.89-56.57Z"/>
  <path class="cls-1" d="M146.44,158.97h-26.88c-.94-14.52,2.23-25.79,13.71-34.99,4.25-3.41,10.02-6.31,13.85-9.95,3.18-3.03,10.19-14.52,12.87-15.78,5.27-2.47,10.6,2.25,8.07,7.63-3.1,6.6-12.16,13.97-15.38,20.31-.9,1.78-.72,3.21,1.62,2.72l16.31-21.37c2.42-4.96.29-4.96.15-8.72-.12-3.45.98-8.18.83-12.38s-2.39-13.4.67-16.47c2.38-2.38,6.4-1.62,7.56,1.62,1.35,3.77,2.15,16.48,2.34,21.02.46,11.38-2.39,19.98-6.07,30.55-2.57,7.39-4.14,8.53-9.81,13.55-7.05,6.24-18.5,12.37-19.84,22.25Z"/>
  <path class="cls-1" d="M90.47,158.97h-26.88c.03-5.29-4.36-9.23-7.93-12.57-6.89-6.45-17.55-12.13-20.85-21.02-1.99-5.37-4.36-12.88-5.82-18.42-2.07-7.86-.98-26.28.77-34.49,1.28-6.02,8.75-4.5,9.57.36.59,3.53-.73,9.01-.88,12.74-.17,4.45,1,9.2.91,12.82-.03,1.36-1.27,3.12-1.25,4.83s1.2,3.64,1.74,5.21l15.8,20.35c1.05.67,2.92-.19,2.44-1.53-4.44-6.6-10.4-12.64-14.7-19.28-1.64-2.54-3.05-4.07-1.63-7.19,1.29-2.83,4.91-3.76,7.74-2.89,2.44.76,10.21,12.94,12.98,15.67,4.59,4.53,11.79,7.74,16.76,12.33,9.59,8.86,11.85,20.4,11.23,33.07Z"/>
  <path class="cls-1" d="M115.01,162.58h34.2c2.87.85,2.29,9.44,2.09,12.05-.09,1.13-.37,3.91-1.33,4.4l-34.71-.12c-1.5-.78-1.75-1.84-1.9-3.39-.21-2.3-.6-12.26,1.65-12.94Z"/>
  <path class="cls-1" d="M60.81,162.59l34.09.1c1.05.38,1.54,1.18,1.71,2.26.27,1.73.28,10.64-.17,12.11-.62,2.03-3.8,2.03-5.76,2.18-9.64.71-20.15-.44-29.87-.09-2.91-.85-2.27-9.85-2.09-12.49.11-1.68.08-3.63,2.1-4.07Z"/>
  <path class="cls-1" d="M128.81,58.48h-14.54v31.73h-18.51s-.44-31.73-.44-31.73h-13.44l-.61-1.04c7.05-10.15,13.55-20.79,20.74-30.83.52-.73,2.6-3.98,3.22-3.83l23.58,35.7Z"/>
</svg>