<?xml version="1.0" encoding="UTF-8"?>
<svg id="Layer_1" data-name="Layer 1" xmlns="http://www.w3.org/2000/svg" viewBox="0 0 210.06 179.62">
  <defs>
    <style>
      .cls-1 {
        fill: #ff541c;
      }
    </style>
  </defs>
  <path class="cls-1" d="M181.65,6.1c2.49.77,3.56,15.12-3.57,12.44l4.25,47.83c.79,2.51,7.38,3.32,9.84,4.62,3.39,1.8,17.89,12.95,17.89,16.2v16.01c-6.26-3.72-10.68-10.42-16.62-14.89-36.12-27.21-84.87,2.33-82.54,45.88l-39.12-.14c-7.56-27.04-37.06-38.28-61.07-23.62-1.3-10.8-4.67-22.18-1.37-32.87,4.35-14.1,21.03-14.63,33.39-15.68,1.64-7.05-3.66-20.43.44-25.9,3.3-4.41,6.14-1.35,4.77-10.83-.84-5.76-5.23-3.77-6.11-6.28-.71-2.03.16-5.34-.12-7.61,11.86,4.11,16.08,8.84,14.4,22.05,6.35,2.1,5.22,5.82,5.22,11.52v14.98l20.75-2.73,14.36-37.05-5.53-.65-1.55-1.55c.1-3.74-1.45-8.97,1.41-11.73h90.9ZM132.59,19.53h-22.21c-.21,0-.85-1.04-1.57-.59-10.22,28.29-23.5,56.28-20.64,87.37l13.47-.48c4.05-11.02,9.86-20.96,19.09-28.42,2.43-1.96,11.86-6.66,11.86-8.8V19.53ZM166.68,19.53h-24.79v47.52c2.22-.33,8.27-3.1,9.81-3.1h17.56l1.3-1.5-3.88-42.91ZM55.12,59.3v-15.49c0-.5-1.3-1.87-1.06-2.91-4.07-2.59-4.92,3.05-5.19,5.96-.48,5.2-1.16,18.86,6.25,12.44ZM25.16,84.6h25.31c1.89,0,2.68-5.87-1.24-7.02-1.84-.54-20.72-.61-22.37-.07-2.65,1.16-1.54,4.62-1.69,7.09ZM25.16,97h25.31c1.6,0,1.86-3.46,1.04-5.16-1.53-3.21-3.38-1.03-4.14-1.03h-22.21v6.2Z"/>
  <path class="cls-1" d="M156.1,85.9c58.52-8.03,73.71,78.78,13.93,89.33-60.54,10.69-70.2-81.61-13.93-89.33ZM158.14,97.25c-13.2,2.1-26.37,15.85-27.61,29.2-3.94,42.67,52.56,49.6,64.08,14.51,7.48-22.76-12.67-47.5-36.48-43.7Z"/>
  <path class="cls-1" d="M57.85,165.84c-12.03,12.73-31.78,14.38-45.57,3.44-19.23-15.25-15.54-48.38,8.78-56.24,33.27-10.76,60.42,27.8,36.79,52.8ZM49.59,128.36c-19.22-19.2-51.24,6.06-34.74,28.03,18.72,24.94,56.84-5.96,34.74-28.03Z"/>
  <path class="cls-1" d="M158.18,112.75c28.21-3.46,29.96,38.86.75,35.89-19.65-2-22.05-33.28-.75-35.89ZM169.45,137.99c9.49-8.69-5.96-25.05-15.88-13.81-9.01,10.22,6.73,22.19,15.88,13.81Z"/>
  <path class="cls-1" d="M30.05,129.25c20.62-4.24,24.15,30.59.04,27.4-15.11-2-14.93-24.33-.04-27.4ZM31.09,136.43c-8.47,1.75-4.61,14.59,3.64,13.08,7.52-1.37,6.77-15.24-3.64-13.08Z"/>
</svg>