<?xml version="1.0" encoding="UTF-8"?>
<svg id="Layer_1" data-name="Layer 1" xmlns="http://www.w3.org/2000/svg" viewBox="0 0 210.06 179.62">
  <defs>
    <style>
      .cls-1 {
        fill: #ff541c;
      }
    </style>
  </defs>
  <path class="cls-1" d="M105.45,179.54c-.19.13-.68-.54-.85-.74-1.17-1.42-9.58-13.85-9.68-14.73-.06-.55.33-.97.29-1.51l-.88.7c-7.72-11.8-15.74-23.46-23.29-35.39-1.55-2.45-5.45-7.69-6.31-9.99-.26-.71-.03-.99.09-1.65l-1.03.34c-4.26-7.52-9.06-14.76-13.16-22.38-4.23-7.88-9.8-20.33-9.16-29.41.05-.78.63-1.15.68-1.48.07-.41-.65-.89-.67-1.68-.26-11.48,5.7-26.53,12.45-35.67,27.64-37.43,84.95-33.66,107.04,7.3,19.61,36.36-2.47,64.41-21.46,94.27-11.12,17.48-23.06,34.47-34.07,52.01ZM135.64,50.68c-10.2-27.52-48.75-28.78-60.27-1.87-12.9,30.14,22.75,57.99,49.28,38.37,10.98-8.12,15.74-23.66,10.99-36.5Z"/>
</svg>