<?xml version="1.0" encoding="UTF-8"?>
<svg id="Layer_1" data-name="Layer 1" xmlns="http://www.w3.org/2000/svg" viewBox="0 0 210.06 179.62">
  <defs>
    <style>
      .cls-1 {
        fill: #ff541c;
      }
    </style>
  </defs>
  <path class="cls-1" d="M181.83,165.39l-.6-.98c5.35-7.71,9.03-12.06,8.32-22.13-.89-12.6-7.55-17.1-15.22-25.44-1.2-1.3-6.04-7.82-7.12-7.92-.9-.02-1.93.58-1.57,1.58.41,1.17,5.16,6.61,6.32,7.92,1.41,1.59,3.11,2.95,4.54,4.53-2.16,2.68-4.87,3.98-8.11,4.91-.68,1.72.86,6.84-1.61,7.01-2.62.19-1.31-4.53-1.79-5.94s-5.57-1.37-6.99-1.39c-.52.34-.9,7.52-3.84,5.12-1.88-1.54,1.17-5.78.45-7.14-3.13-2.08-5.71-4.2-7.6-7.52-5.91,1.12-11.19,2.38-17.3,2-10.8-.67-21.66-6.19-32.46-3.48-.39.4-1.52,8.31-1.67,9.59-.65,5.58-1.94,14.01-1.58,19.34.19,2.85,2.24,10.86,1.51,12.97-.29.83-1.58.79-2.09,1.46-1.04,1.38-.53,4.68-2.56,5.34-1.24.4-11.48.31-11.86-.24,1.07-4.35,6.16-7.56,7.06-12.06,1.81-9.03-1.12-11.73-3.09-19.34-.74-2.83-1.83-13.47-3.16-14.99-1.04-1.19-2.21-.21-3.39-.18-28.29.82-23.85-35.09-40.73-47.7-4.46-3.33-5.51-1.41-10.21-1.63-3.21-.15-5.76-1.36-9.28-.63-1.69.35-3.36,1.92-4.93,2.17-5.79.92-14.57-5.86-9.98-11.56,3.94-4.89,9.99-8.75,13.18-14.85.73-1.41,1.09-3.09,1.83-4.49,2.32-4.37,7.02-6.4,10.78-9.36,3.19-2.51,4.06-5.39,9.29-4.33-2.88,2.82-3.22,5.35-.01,8.1,5.46,4.69,7.86-1.32,12.94-2.48,1.68-.38,7.32-1.05,8.19.68,1.41,2.79-4.22,8.88-6.99,9.61-1.92.5-7.04-.63-6.2,1.99.46,1.42,4.74,1.16,5.98.95,1.88-.32,3.55-1.71,5.15-2.61,3.45,1.74,7.19,3.59,10.99,4.42,6.73,1.46,13.83.17,20.66.66,6.98.5,14.52,2.56,21.72,3.15,6.23.51,12.51.44,18.75.4-1.58,11.87,14.51,18.73,24.23,17.72,9.68-1.01,16.63-9.82,12.49-19.29,2.81-.04,5.69-.14,8.48-.4,9.8-.9,23.52-3.5,30.59,5.34,9.31,11.63,2.14,39.32,3.95,54.09.3,2.44,2.31,5.47,2.67,8.38.55,4.42-1.07,9.68-3.25,13.51-3.09-4.11-4.31-9.65-3.71-14.75.33-2.83,1.93-5.55,1.93-8.72,0-6.9-.44-13.97-.41-20.94.04-8.46,2.1-23.56-5.5-29.6-.79-.62-5.56-3.25-5.93-1.56-.13.62,4.46,4.44,5.29,5.75,4.18,6.57,1.44,15.68.18,22.81-14.62-1.63-17.21,18.73-3.56,22.21.3,4.59,1.41,8.61,3.15,12.84.62,1.51,2.01,3.31,2.46,4.65,1.18,3.51-2.45,15.68-2.78,20.55-.32,4.7.29,9.43.31,14.13-.38,1.68-1.84,1.81-2.46,2.67-.67.94-.97,5.11-2.79,5.11h-11.05ZM30.7,45.65c1.39-1.27,1.36-3.46-.74-3.95-3.14-.74-5.59,2.4-5.85,5.26.79.14,1.04-.7,1.8-.8,1.49-.19,2.94,1.18,4.79-.51ZM6.63,63.04c2.2-2.7-1.11-4.46-3.66-1.1-2.24,2.95,2.14,2.96,3.66,1.1ZM112.44,75.48c-4.53.92-6.9,5.97-5.33,10.29s5.66,5.04,9.05,7.13c1.52.93,2.87,2.54,4.47,3.43,5.48,3.05,14.17,3.67,19.16-.6,6.75-5.77,3.34-15.92-5.34-16.78-2.39-.24-5.02.2-7.45-.05-5.2-.55-8.89-4.57-14.57-3.42Z"/>
  <path class="cls-1" d="M77.77,121.22l2.73,13.98c-2.2,5.49-.51,11.02-.3,16.56.19,5.02-.38,3.16-2.16,6.17-.64,1.08-.5,2.81-1.7,3.44-.75.39-6.2.88-7.4.9-.89.02-5.23-.12-4.94-1.39,6.67-6.82,8.55-14.19,7.45-23.65-.28-2.45-1.71-4.97-2.2-7.67-.55-3.03-.62-6.1-.91-9.15l9.44.83Z"/>
  <path class="cls-1" d="M162.68,161.84c-.87-.88,5.05-8.32,5.84-9.75,3.75-6.79,4.24-14.98,3.7-22.56l6.64-4.41c.88,2.12,5.28,5.63,5.13,8.06-.09,1.47-2.3,4.92-2.94,6.56-1.33,3.37-2.6,6.81-2.97,10.45-.16,1.62.32,4.04-.09,5.44-.29,1-1.6,1.23-2.06,1.88-.62.86-.6,2.87-1.57,3.56-.22.15-2.22.76-2.4.76h-9.28Z"/>
  <path class="cls-1" d="M38.98,27.48c3.93-4.65-5.66-8.56-6.97-12.49.44-.39,9.47,4.96,10.39,5.6,2.53,1.77,3.76,2.64,3.43,6.05-.22,2.24-3.43,6.67-5.7,6.51-1.3-.09-3.16-1.85-3.72-3.03-.14-.94,2.08-2.05,2.57-2.63Z"/>
  <path class="cls-1" d="M17.79,17.75c1.47,4.6,4.96,6.88,9.08,8.88l-2.95,2.95c-4.15-2.26-6.68-6.09-6.91-10.85-.04-.82-.24-1.13.78-.98Z"/>
</svg>