<svg width="33" height="28" viewBox="0 0 33 28" fill="none" xmlns="http://www.w3.org/2000/svg">
<path d="M14.4612 7.30785L13.3553 8.08728C12.8698 8.75602 12.5038 9.49803 12.0623 10.1933C11.6523 10.8402 10.5935 11.7194 11.4088 12.4832C12.2242 13.2471 13.7621 12.8948 14.5979 12.2478C15.0252 11.9174 15.7243 10.9088 16.0385 10.7467C16.1736 10.6781 17.4964 10.346 17.6032 10.3679C17.8357 10.4162 18.5128 10.9758 18.7531 11.1551C20.6226 12.5534 23.0702 14.3616 24.759 15.9127C25.4015 16.5035 26.1289 17.3188 25.2287 18.1122C24.0112 19.1847 22.5942 16.6017 21.394 16.463L21.339 16.9166L23.5478 18.6796C24.0426 19.6196 23.4252 20.6999 22.2878 20.4661C21.7317 20.3523 20.0681 18.7545 19.7759 18.8402C19.603 18.8901 19.5889 19.2393 19.6816 19.3889C19.8544 19.6679 21.1819 20.2962 21.3421 20.6718C21.6736 21.4497 20.9619 22.2057 20.1545 22.1309C19.4837 22.0686 18.2693 20.717 17.8765 20.9883C17.4838 21.2595 18.3557 21.6679 18.5269 21.8145C19.4962 22.6438 18.8474 23.4061 17.743 23.325C17.0643 23.2751 16.6355 22.8153 16.0385 22.5845C16.4092 21.5869 16.1328 20.9415 15.2137 20.4333C15.6944 19.3032 15.0048 18.1403 13.7213 18.198C14.0402 17.1863 12.9311 16.2899 11.9477 16.3881C11.3161 16.4505 10.8653 16.8745 10.5353 17.3733C9.90853 16.346 8.91567 16.1013 7.8694 16.7248L5.41553 14.6656L9.0225 8.04675C9.51264 8.18081 9.89753 8.42399 10.4364 8.4084C11.7607 8.36787 13.1055 6.9727 14.4597 7.30785H14.4612Z" fill="#FF541C"/>
<path d="M24.1538 7.40449L27.4764 14.3102C26.7428 14.703 26.1395 15.1005 25.5802 15.7209L17.7897 9.63364L15.6265 10.1543C14.9384 10.9088 14.3603 12.1247 13.2151 12.2494C12.8035 12.2946 11.5592 12.2915 11.853 11.6336C12.3714 10.9212 12.8726 10.1901 13.336 9.44034C13.5292 9.12857 13.6518 8.62195 13.9141 8.3663C14.2189 8.06856 15.2275 7.8472 15.6815 7.64611C16.6539 7.21587 17.2163 6.63598 18.3632 6.78095C19.2319 6.89163 20.2263 7.37019 21.0904 7.5557C22.2042 7.79576 23.0682 7.78329 24.1522 7.40293L24.1538 7.40449Z" fill="#FF541C"/>
<path d="M29.1607 16.357L24.4399 6.4349C24.4415 6.27122 24.5719 6.21043 24.685 6.13093C25.5302 5.53545 26.9284 5.16756 27.8285 4.57208L32.8447 14.5892L32.697 14.8012C32.1912 14.968 29.4639 16.5471 29.1623 16.357H29.1607ZM30.6924 13.7397C30.2573 13.2268 29.2346 13.5292 29.3288 14.4022C29.4734 15.735 31.569 14.7716 30.6924 13.7397Z" fill="#FF541C"/>
<path d="M8.80861 6.68277L8.72378 7.15978L3.79719 16.1013L3.60867 16.1824L0.22635 14.3133L0.157227 14.1434L5.31475 4.87762L5.67922 4.88542L8.81018 6.68277H8.80861ZM2.7949 13.3671C1.89944 13.5666 2.13509 15.1224 3.21592 14.887C4.11924 14.689 4.01398 13.0959 2.7949 13.3671Z" fill="#FF541C"/>
<path d="M12.8618 17.3125C13.143 17.5682 13.1178 18.0218 13.0047 18.3569C12.9152 18.6219 11.4526 20.4894 11.1824 20.7622C10.2979 21.657 9.16368 21.1644 9.32863 19.9329C9.96016 19.1878 10.587 18.1325 11.2704 17.4637C11.682 17.06 12.4015 16.8963 12.8602 17.3125H12.8618Z" fill="#FF541C"/>
<path d="M13.6034 18.8589C14.3606 18.689 14.9199 19.2985 14.6952 20.0343C14.656 20.1652 13.2185 22.0795 13.0803 22.1855C12.3451 22.7513 11.459 22.3024 11.4512 21.3998C11.9068 20.9337 13.0661 18.9805 13.6034 18.8589Z" fill="#FF541C"/>
<path d="M8.80684 17.0288C9.54991 16.9696 10.194 17.6056 9.82954 18.3242C9.44622 19.0818 8.50678 19.8363 7.75899 19.0272C7.03477 18.2447 7.90666 17.0989 8.80684 17.0288Z" fill="#FF541C"/>
<path d="M15.9392 23.2331C15.1569 23.3453 13.7697 23.8208 13.5765 22.6906C13.5215 22.371 14.3023 21.2845 14.5568 21.1785C15.1019 20.9494 15.6062 21.3469 15.5779 21.9065C15.5669 22.1341 15.4098 22.2791 15.3863 22.4646C15.3281 22.9307 15.7727 22.8683 15.9408 23.2331H15.9392Z" fill="#FF541C"/>
</svg>
