<svg width="20" height="21" viewBox="0 0 20 21" fill="none" xmlns="http://www.w3.org/2000/svg">
<path d="M15 0.222168H5C2.22222 0.222168 0 2.43823 0 5.20832V15.1806C0 17.9507 2.22222 20.1668 5 20.1668H15C17.7778 20.1668 20 17.9507 20 15.1806V5.20832C20 2.43823 17.7778 0.222168 15 0.222168ZM15.5 5.92854H13.9444C12.8333 5.92854 12.5 6.37175 12.5 7.42438V9.14184H15.5L15.2222 11.9119H12.5556V20.2222H9V11.9119H6.61111V9.14184H9V7.47979C9 4.7097 10.1667 3.26926 13.5 3.26926C16.8333 3.26926 15.0556 3.26926 15.5556 3.38006V5.98394L15.5 5.92854Z" fill="#EFEFEF"/>
</svg>
