<svg width="20" height="20" viewBox="0 0 20 20" fill="none" xmlns="http://www.w3.org/2000/svg">
<path d="M15 0H5C2.22222 0 0 2.21607 0 4.98615V14.9584C0 17.7285 2.22222 19.9446 5 19.9446H15C17.7778 19.9446 20 17.7285 20 14.9584V4.98615C20 2.21607 17.7778 0 15 0ZM15.5 5.70637H13.9444C12.8333 5.70637 12.5 6.14958 12.5 7.20222V8.91967H15.5L15.2222 11.6898H12.5556V20H9V11.6898H6.61111V8.91967H9V7.25762C9 4.48753 10.1667 3.04709 13.5 3.04709C16.8333 3.04709 15.0556 3.04709 15.5556 3.15789V5.76177L15.5 5.70637Z" fill="#352631"/>
</svg>
