<svg width="20" height="21" viewBox="0 0 20 21" fill="none" xmlns="http://www.w3.org/2000/svg">
<g clip-path="url(#clip0_88_398)">
<path d="M10 7.72217C8.61111 7.72217 7.5 8.83328 7.5 10.2222C7.5 11.6111 8.61111 12.7222 10 12.7222C11.3889 12.7222 12.5 11.6111 12.5 10.2222C12.5 8.83328 11.3889 7.72217 10 7.72217Z" fill="#EFEFEF"/>
<path d="M15.8329 5.77764C15.7218 5.44431 15.5551 5.16653 15.2773 4.88875C14.9996 4.61098 14.7773 4.44431 14.3885 4.3332C14.1107 4.22209 13.7218 4.11098 12.9996 4.05542C12.2218 4.05542 11.944 4.05542 9.94401 4.05542C7.94401 4.05542 7.72179 4.05542 6.88845 4.05542C6.16623 4.05542 5.77734 4.22209 5.49957 4.3332C5.16623 4.44431 4.88845 4.61098 4.61068 4.88875C4.3329 5.16653 4.16623 5.38875 4.05512 5.77764C3.94401 6.05542 3.8329 6.44431 3.77734 7.16653C3.77734 7.94431 3.77734 8.22209 3.77734 10.2221C3.77734 12.2221 3.77734 12.4443 3.77734 13.2776C3.77734 13.9999 3.94401 14.3888 4.05512 14.6665C4.16623 14.9999 4.3329 15.2776 4.61068 15.5554C4.88845 15.8332 5.11068 15.9999 5.49957 16.111C5.77734 16.2221 6.16623 16.3332 6.88845 16.3888C7.66623 16.3888 7.88845 16.3888 9.94401 16.3888C11.9996 16.3888 12.1662 16.3888 12.9996 16.3888C13.7218 16.3888 14.1107 16.2221 14.3885 16.111C14.7218 15.9999 14.9996 15.8332 15.2773 15.5554C15.5551 15.2776 15.7218 15.0554 15.8329 14.6665C15.944 14.3888 16.0551 13.9999 16.1107 13.2776C16.1107 12.4999 16.1107 12.2221 16.1107 10.2221C16.1107 8.22209 16.1107 7.99986 16.1107 7.16653C16.1107 6.44431 15.944 6.05542 15.8329 5.77764ZM9.99956 14.0554C7.88845 14.0554 6.16623 12.3332 6.16623 10.2221C6.16623 8.11098 7.88845 6.38875 9.99956 6.38875C12.1107 6.38875 13.8329 8.11098 13.8329 10.2221C13.8329 12.3332 12.1107 14.0554 9.99956 14.0554ZM13.9996 7.11097C13.4996 7.11097 13.1107 6.72209 13.1107 6.22209C13.1107 5.72209 13.4996 5.3332 13.9996 5.3332C14.4996 5.3332 14.8885 5.72209 14.8885 6.22209C14.8885 6.72209 14.4996 7.11097 13.9996 7.11097Z" fill="#EFEFEF"/>
<path d="M15 0.222168H5C2.22222 0.222168 0 2.44439 0 5.22217V15.2222C0 17.9999 2.22222 20.2222 5 20.2222H15C17.7778 20.2222 20 17.9999 20 15.2222V5.22217C20 2.44439 17.7778 0.222168 15 0.222168ZM17.4444 13.3333C17.4444 14.1111 17.2778 14.6666 17.1111 15.1666C16.9444 15.6666 16.6667 16.0555 16.2222 16.4999C15.7778 16.9444 15.3889 17.1666 14.8889 17.3888C14.3889 17.5555 13.8889 17.7222 13.0556 17.7222C12.2778 17.7222 12 17.7222 9.94444 17.7222C7.88889 17.7222 7.66667 17.7222 6.83333 17.7222C6.05556 17.7222 5.5 17.5555 5 17.3888C4.5 17.2222 4.11111 16.9444 3.66667 16.4999C3.22222 16.1111 3 15.6666 2.77778 15.1666C2.61111 14.6666 2.44444 14.1666 2.44444 13.3333C2.44444 12.5555 2.44444 12.2777 2.44444 10.2222C2.44444 8.16661 2.44444 7.94439 2.44444 7.11106C2.44444 6.33328 2.61111 5.77772 2.77778 5.27772C2.94444 4.77772 3.22222 4.38883 3.66667 3.94439C4.11111 3.49995 4.5 3.27772 5 3.0555C5.5 2.88883 6 2.72217 6.83333 2.72217C7.61111 2.72217 7.88889 2.72217 9.94444 2.72217C12 2.72217 12.2222 2.72217 13.0556 2.72217C13.8333 2.72217 14.3889 2.88883 14.8889 3.0555C15.3889 3.22217 15.7778 3.49995 16.2222 3.94439C16.6667 4.38883 16.8889 4.77772 17.1111 5.27772C17.2778 5.77772 17.4444 6.27772 17.4444 7.11106C17.4444 7.88883 17.4444 8.16661 17.4444 10.2222C17.4444 12.2777 17.4444 12.4999 17.4444 13.3333Z" fill="#EFEFEF"/>
</g>
<defs>
<clipPath id="clip0_88_398">
<rect width="20" height="20" fill="white" transform="translate(0 0.222168)"/>
</clipPath>
</defs>
</svg>
