<svg width="20" height="20" viewBox="0 0 20 20" fill="none" xmlns="http://www.w3.org/2000/svg">
<g clip-path="url(#clip0_168_357)">
<path d="M10 7.5C8.61111 7.5 7.5 8.61111 7.5 10C7.5 11.3889 8.61111 12.5 10 12.5C11.3889 12.5 12.5 11.3889 12.5 10C12.5 8.61111 11.3889 7.5 10 7.5Z" fill="#352631"/>
<path d="M15.8329 5.55553C15.7218 5.2222 15.5551 4.94442 15.2773 4.66665C14.9996 4.38887 14.7773 4.2222 14.3885 4.11109C14.1107 3.99998 13.7218 3.88887 12.9996 3.83331C12.2218 3.83331 11.944 3.83331 9.94401 3.83331C7.94401 3.83331 7.72179 3.83331 6.88845 3.83331C6.16623 3.83331 5.77734 3.99998 5.49957 4.11109C5.16623 4.2222 4.88845 4.38887 4.61068 4.66665C4.3329 4.94442 4.16623 5.16665 4.05512 5.55553C3.94401 5.83331 3.8329 6.2222 3.77734 6.94442C3.77734 7.7222 3.77734 7.99998 3.77734 9.99998C3.77734 12 3.77734 12.2222 3.77734 13.0555C3.77734 13.7778 3.94401 14.1666 4.05512 14.4444C4.16623 14.7778 4.3329 15.0555 4.61068 15.3333C4.88845 15.6111 5.11068 15.7778 5.49957 15.8889C5.77734 16 6.16623 16.1111 6.88845 16.1666C7.66623 16.1666 7.88845 16.1666 9.94401 16.1666C11.9996 16.1666 12.1662 16.1666 12.9996 16.1666C13.7218 16.1666 14.1107 16 14.3885 15.8889C14.7218 15.7778 14.9996 15.6111 15.2773 15.3333C15.5551 15.0555 15.7218 14.8333 15.8329 14.4444C15.944 14.1666 16.0551 13.7778 16.1107 13.0555C16.1107 12.2778 16.1107 12 16.1107 9.99998C16.1107 7.99998 16.1107 7.77776 16.1107 6.94442C16.1107 6.2222 15.944 5.83331 15.8329 5.55553ZM9.99956 13.8333C7.88845 13.8333 6.16623 12.1111 6.16623 9.99998C6.16623 7.88887 7.88845 6.16665 9.99956 6.16665C12.1107 6.16665 13.8329 7.88887 13.8329 9.99998C13.8329 12.1111 12.1107 13.8333 9.99956 13.8333ZM13.9996 6.88887C13.4996 6.88887 13.1107 6.49998 13.1107 5.99998C13.1107 5.49998 13.4996 5.11109 13.9996 5.11109C14.4996 5.11109 14.8885 5.49998 14.8885 5.99998C14.8885 6.49998 14.4996 6.88887 13.9996 6.88887Z" fill="#352631"/>
<path d="M15 0H5C2.22222 0 0 2.22222 0 5V15C0 17.7778 2.22222 20 5 20H15C17.7778 20 20 17.7778 20 15V5C20 2.22222 17.7778 0 15 0ZM17.4444 13.1111C17.4444 13.8889 17.2778 14.4444 17.1111 14.9444C16.9444 15.4444 16.6667 15.8333 16.2222 16.2778C15.7778 16.7222 15.3889 16.9444 14.8889 17.1667C14.3889 17.3333 13.8889 17.5 13.0556 17.5C12.2778 17.5 12 17.5 9.94444 17.5C7.88889 17.5 7.66667 17.5 6.83333 17.5C6.05556 17.5 5.5 17.3333 5 17.1667C4.5 17 4.11111 16.7222 3.66667 16.2778C3.22222 15.8889 3 15.4444 2.77778 14.9444C2.61111 14.4444 2.44444 13.9444 2.44444 13.1111C2.44444 12.3333 2.44444 12.0556 2.44444 10C2.44444 7.94444 2.44444 7.72222 2.44444 6.88889C2.44444 6.11111 2.61111 5.55556 2.77778 5.05556C2.94444 4.55556 3.22222 4.16667 3.66667 3.72222C4.11111 3.27778 4.5 3.05556 5 2.83333C5.5 2.66667 6 2.5 6.83333 2.5C7.61111 2.5 7.88889 2.5 9.94444 2.5C12 2.5 12.2222 2.5 13.0556 2.5C13.8333 2.5 14.3889 2.66667 14.8889 2.83333C15.3889 3 15.7778 3.27778 16.2222 3.72222C16.6667 4.16667 16.8889 4.55556 17.1111 5.05556C17.2778 5.55556 17.4444 6.05556 17.4444 6.88889C17.4444 7.66667 17.4444 7.94444 17.4444 10C17.4444 12.0556 17.4444 12.2778 17.4444 13.1111Z" fill="#352631"/>
</g>
<defs>
<clipPath id="clip0_168_357">
<rect width="20" height="20" fill="white"/>
</clipPath>
</defs>
</svg>
