<svg width="20" height="20" viewBox="0 0 20 20" fill="none" xmlns="http://www.w3.org/2000/svg">
<path d="M15 0C17.7614 0 20 2.23858 20 5V15C20 17.7614 17.7614 20 15 20H5C2.23858 20 0 17.7614 0 15V5C0 2.23858 2.23858 0 5 0H15ZM11.5 3C10.6716 3 10 3.62719 10 4.40039V12.7998C10 13.573 9.32838 14.2001 8.5 14.2002C7.67159 14.2002 7 13.573 7 12.7998C7.0001 12.1495 7.47682 11.5998 8.12402 11.4443C8.92618 11.2516 9.40861 10.488 9.20215 9.73926C8.99563 8.99053 8.17821 8.53973 7.37598 8.73242C5.43556 9.19863 4.0001 10.841 4 12.7998C4 15.1194 6.01477 17 8.5 17C10.9852 16.9999 13 15.1194 13 12.7998V8.82812C13.3777 8.99563 13.7806 9.1223 14.2012 9.20215C15.0129 9.356 15.8047 8.86601 15.9697 8.1084C16.1345 7.35089 15.6103 6.61211 14.7988 6.45801C13.7727 6.26336 13.0002 5.41335 13 4.40039C13 3.62724 12.3284 3.00009 11.5 3Z" fill="#EFEFEF"/>
</svg>
