<svg width="20" height="20" viewBox="0 0 20 20" fill="none" xmlns="http://www.w3.org/2000/svg">
<rect width="20" height="20" rx="5" fill="#352631"/>
<path fill-rule="evenodd" clip-rule="evenodd" d="M11.4998 3C12.3283 3 12.9998 3.6268 12.9998 4.4C12.9998 5.41313 13.7723 6.26326 14.7986 6.45794C15.6103 6.61194 16.1346 7.35103 15.9697 8.10873C15.8047 8.86642 15.0128 9.35586 14.201 9.20186C13.7802 9.12199 13.3776 8.99522 12.9998 8.82764V12.8C12.9998 15.1196 10.9851 17 8.4999 17C6.01467 17 4 15.1196 4 12.8C4 10.841 5.43552 9.19857 7.37603 8.73237C8.1783 8.53967 8.99609 8.99046 9.20256 9.73925C9.40903 10.488 8.92604 11.2513 8.1238 11.444C7.47652 11.5995 6.99993 12.1496 6.99993 12.8C6.99993 13.5732 7.67149 14.2 8.4999 14.2C9.32833 14.2 9.99986 13.5732 9.99986 12.8V4.4C9.99986 3.6268 10.6714 3 11.4998 3Z" fill="#EFEFEF"/>
</svg>
