<svg width="20" height="21" viewBox="0 0 20 21" fill="none" xmlns="http://www.w3.org/2000/svg">
<rect y="0.222168" width="20" height="20" rx="5" fill="#EFEFEF"/>
<path fill-rule="evenodd" clip-rule="evenodd" d="M11.4998 3.22217C12.3283 3.22217 12.9998 3.84897 12.9998 4.62217C12.9998 5.6353 13.7723 6.48543 14.7986 6.6801C15.6103 6.83411 16.1346 7.57319 15.9697 8.3309C15.8047 9.08859 15.0128 9.57803 14.201 9.42403C13.7802 9.34416 13.3776 9.21739 12.9998 9.04981V13.0222C12.9998 15.3418 10.9851 17.2222 8.4999 17.2222C6.01467 17.2222 4 15.3418 4 13.0222C4 11.0632 5.43552 9.42074 7.37603 8.95454C8.1783 8.76184 8.99609 9.21263 9.20256 9.96142C9.40903 10.7102 8.92604 11.4735 8.1238 11.6662C7.47652 11.8217 6.99993 12.3717 6.99993 13.0222C6.99993 13.7954 7.67149 14.4222 8.4999 14.4222C9.32833 14.4222 9.99986 13.7954 9.99986 13.0222V4.62217C9.99986 3.84897 10.6714 3.22217 11.4998 3.22217Z" fill="#352631"/>
</svg>
