<svg width="29" height="24" viewBox="0 0 29 24" fill="none" xmlns="http://www.w3.org/2000/svg">
<path d="M22.4091 0C23.2746 0 24.1317 0.172438 24.9313 0.50747C25.731 0.842501 26.4575 1.33356 27.0696 1.95262C27.6816 2.57168 28.1671 3.30661 28.4983 4.11544C28.8295 4.92428 29 5.79119 29 6.66667V17.3333C29 18.2088 28.8295 19.0757 28.4983 19.8846C28.1671 20.6934 27.6816 21.4283 27.0696 22.0474C26.4575 22.6664 25.731 23.1575 24.9313 23.4925C24.1317 23.8276 23.2746 24 22.4091 24H6.59091C5.72538 24 4.86832 23.8276 4.06868 23.4925C3.26903 23.1575 2.54246 22.6664 1.93043 22.0474C0.694397 20.7971 0 19.1014 0 17.3333V6.66667C0 4.89856 0.694397 3.20286 1.93043 1.95262C3.16647 0.702379 4.84289 0 6.59091 0H22.4091ZM10.5455 8V16C10.5456 16.2358 10.6076 16.4673 10.7251 16.671C10.8426 16.8746 11.0114 17.0431 11.2143 17.1593C11.4172 17.2754 11.6469 17.3351 11.88 17.3322C12.1131 17.3293 12.3412 17.2639 12.5412 17.1427L19.1321 13.1427C19.327 13.0241 19.4883 12.8566 19.6002 12.6564C19.7122 12.4561 19.771 12.23 19.771 12C19.771 11.77 19.7122 11.5439 19.6002 11.3436C19.4883 11.1434 19.327 10.9759 19.1321 10.8573L12.5412 6.85733C12.3412 6.73613 12.1131 6.67074 11.88 6.66782C11.6469 6.6649 11.4172 6.72456 11.2143 6.84072C11.0114 6.95687 10.8426 7.12537 10.7251 7.32902C10.6076 7.53267 10.5456 7.7642 10.5455 8Z" fill="#352631"/>
</svg>
