<svg width="24" height="20" viewBox="0 0 24 20" fill="none" xmlns="http://www.w3.org/2000/svg">
<path d="M18.5455 0.181818C19.2618 0.181818 19.971 0.322904 20.6328 0.597021C21.2946 0.871137 21.8959 1.27292 22.4024 1.77942C22.9089 2.28592 23.3107 2.88722 23.5848 3.549C23.8589 4.21078 24 4.92006 24 5.63636V14.3636C24 15.0799 23.8589 15.7892 23.5848 16.451C23.3107 17.1128 22.9089 17.7141 22.4024 18.2206C21.8959 18.7271 21.2946 19.1289 20.6328 19.403C19.971 19.6771 19.2618 19.8182 18.5455 19.8182H5.45455C4.73824 19.8182 4.02896 19.6771 3.36718 19.403C2.70541 19.1289 2.1041 18.7271 1.5976 18.2206C0.574674 17.1977 0 15.8103 0 14.3636V5.63636C0 4.18973 0.574674 2.80234 1.5976 1.77942C2.62053 0.756492 4.00791 0.181818 5.45455 0.181818H18.5455ZM8.72727 6.72727V13.2727C8.72743 13.4657 8.77874 13.6551 8.87598 13.8217C8.97321 13.9883 9.1129 14.1262 9.28079 14.2212C9.44868 14.3163 9.63878 14.3651 9.83169 14.3627C10.0246 14.3603 10.2134 14.3068 10.3789 14.2076L15.8335 10.9349C15.9947 10.8379 16.1282 10.7009 16.2209 10.537C16.3135 10.3732 16.3622 10.1882 16.3622 10C16.3622 9.81179 16.3135 9.62679 16.2209 9.46297C16.1282 9.29914 15.9947 9.16208 15.8335 9.06509L10.3789 5.79236C10.2134 5.6932 10.0246 5.6397 9.83169 5.63731C9.63878 5.63492 9.44868 5.68373 9.28079 5.77877C9.1129 5.8738 8.97321 6.01166 8.87598 6.17829C8.77874 6.34492 8.72743 6.53435 8.72727 6.72727Z" fill="#EFEFEF"/>
</svg>
